<svg width="24" height="25" viewBox="0 0 24 25" fill="none" xmlns="http://www.w3.org/2000/svg">
<g clip-path="url(#clip0_4074_10546)">
<path d="M23.1376 1.41717L23.1318 15.1981C23.0621 16.2656 21.8187 17.7109 20.7613 17.7109H13.9577V20.6076C13.9577 22.041 12.4238 23.1145 11.1572 23.1924C7.9733 23.3844 4.61508 23.0425 1.41373 23.1924C1.00702 23.2044 0.681656 22.7846 0.97797 22.4248C1.12322 22.2449 1.61708 22.2569 1.87272 22.1789C2.58155 21.957 3.16256 21.1954 3.22647 20.4337C3.31943 19.3002 3.14513 14.1725 3.22647 13.0271C3.34848 12.5413 4.03407 12.6372 4.08636 13.147C4.02826 14.2985 4.17932 19.3362 4.09798 20.4817C4.04569 21.1894 3.74357 21.7651 3.31362 22.2989H11.2502C12.0636 22.2989 13.0978 21.3873 13.0978 20.5237V17.7169H10.2915C9.33867 17.7169 7.92101 16.3016 7.92101 15.318V13.9926H5.98626C5.69575 13.9926 5.4924 13.6148 5.6086 13.3329C5.63184 13.267 5.80614 13.099 5.85843 13.099H7.8571L7.92101 13.0331V11.7736L7.8571 11.7077H5.85843C5.80614 11.7077 5.63184 11.5337 5.6086 11.4738C5.49821 11.1859 5.70156 10.8141 5.98626 10.8141H7.92101V8.72702C7.92101 8.18727 7.4562 7.47359 7.02045 7.18572C5.78871 6.38209 4.27228 7.18572 4.09217 8.63706L4.08055 13.159C3.89463 13.6508 3.24971 13.5548 3.22066 13.0331C3.30781 11.5877 3.11027 10.0164 3.22066 8.58309C3.31362 7.38963 4.46402 5.95628 5.67832 5.95628H12.5691V1.48231C12.5691 1.26041 12.8015 1.01453 13.0281 1.01453C13.3592 1.01453 14.2598 1.70421 14.6375 1.81216C15.0732 1.71021 15.8634 1.02652 16.2527 1.02052C16.5606 1.02052 17.5076 1.69222 17.8562 1.81216C18.2804 1.71621 19.0996 1.02652 19.4714 1.02052C19.7852 1.02052 20.7148 1.69822 21.0808 1.80617L22.6263 1.03852C22.8878 0.996535 22.9982 1.13447 23.1376 1.32638V1.41717ZM22.2603 2.22598C21.9407 2.33393 21.4178 2.75973 21.1099 2.76573C20.802 2.77173 19.8956 2.14201 19.4947 1.99808C19.2158 1.98009 18.292 2.75374 17.8911 2.76573C17.4902 2.77772 16.671 2.11203 16.2352 2.00408C16.0144 2.00408 15.1604 2.63379 14.8524 2.72975C14.3237 2.89167 13.9228 2.34592 13.429 2.22598C13.429 5.75237 13.429 9.27277 13.429 12.7992C13.429 13.7647 13.5858 15.0961 13.2198 15.9897C12.8538 16.8833 12.9061 16.5295 12.7318 16.8113H20.6683C21.3132 16.8113 22.2545 15.7858 22.2545 15.1261V2.22598H22.2603ZM12.5633 6.84987H8.04302C8.44392 7.37764 8.72861 7.94138 8.7809 8.62507C8.93777 10.7001 8.6066 13.0271 8.7809 15.0901C8.9552 17.1532 10.7447 17.3571 11.8951 16.3675C12.1333 16.1636 12.5691 15.5339 12.5691 15.2221V6.84987H12.5633Z" fill="#0F0F0F" stroke="#0F0F0F" stroke-width="0.5"/>
<mask id="path-2-inside-1_4074_10546" fill="white">
<path d="M5.89258 19.3788L11.2785 19.3668C11.8247 19.4328 11.8363 20.2004 11.2785 20.2664H5.96811C5.45683 20.2004 5.39873 19.5228 5.89258 19.3788Z"/>
</mask>
<path d="M5.89258 19.3788L11.2785 19.3668C11.8247 19.4328 11.8363 20.2004 11.2785 20.2664H5.96811C5.45683 20.2004 5.39873 19.5228 5.89258 19.3788Z" fill="#0F0F0F"/>
<path d="M5.89258 19.3788L5.89036 18.3788L5.74874 18.3791L5.61277 18.4188L5.89258 19.3788ZM11.2785 19.3668L11.3984 18.374L11.3376 18.3667L11.2763 18.3668L11.2785 19.3668ZM11.2785 20.2664V21.2664H11.3375L11.396 21.2595L11.2785 20.2664ZM5.96811 20.2664L5.84015 21.2582L5.90387 21.2664H5.96811V20.2664ZM5.89481 20.3788L11.2808 20.3668L11.2763 18.3668L5.89036 18.3788L5.89481 20.3788ZM11.1586 20.3596C11.0528 20.3468 10.9218 20.2883 10.822 20.1695C10.7308 20.0611 10.6933 19.9358 10.6925 19.8236C10.6917 19.711 10.7279 19.5801 10.8236 19.4657C10.928 19.3408 11.0622 19.285 11.1611 19.2733L11.396 21.2595C12.2273 21.1612 12.6971 20.4794 12.6925 19.8096C12.6879 19.1516 12.2225 18.4736 11.3984 18.374L11.1586 20.3596ZM11.2785 19.2664H5.96811V21.2664H11.2785V19.2664ZM6.09608 19.2746C6.19118 19.2869 6.30876 19.3371 6.40429 19.44C6.4937 19.5364 6.54013 19.6536 6.5498 19.7668C6.55946 19.88 6.53368 20.0063 6.45856 20.1201C6.37827 20.2416 6.26624 20.3115 6.17239 20.3389L5.61277 18.4188C4.03156 18.8796 4.30292 21.0598 5.84015 21.2582L6.09608 19.2746Z" fill="#0F0F0F" mask="url(#path-2-inside-1_4074_10546)"/>
<mask id="path-4-inside-2_4074_10546" fill="white">
<path d="M15.2002 9.41735C15.6186 9.34538 17.3616 9.35138 17.7857 9.41735C18.2099 9.48332 18.39 10.137 17.8845 10.299H15.1073C14.6657 10.101 14.7064 9.50131 15.206 9.41735H15.2002Z"/>
</mask>
<path d="M15.2002 9.41735C15.6186 9.34538 17.3616 9.35138 17.7857 9.41735C18.2099 9.48332 18.39 10.137 17.8845 10.299H15.1073C14.6657 10.101 14.7064 9.50131 15.206 9.41735H15.2002Z" fill="#0F0F0F"/>
<path d="M15.2002 9.41735L15.0307 8.43183L15.2002 10.4174V9.41735ZM17.8845 10.299V11.299H18.0407L18.1896 11.2513L17.8845 10.299ZM15.1073 10.299L14.6983 11.2115L14.8934 11.299H15.1073V10.299ZM15.206 9.41735L15.3718 10.4035L15.206 8.41735V9.41735ZM15.3698 10.4029C15.3689 10.403 15.3784 10.4014 15.4015 10.3989C15.4235 10.3965 15.4523 10.3939 15.4883 10.3912C15.5607 10.3858 15.6517 10.381 15.7583 10.377C15.9711 10.3691 16.2282 10.3653 16.4894 10.3656C17.0467 10.3664 17.5093 10.3864 17.632 10.4055L17.9394 8.42923C17.638 8.38235 17.017 8.36635 16.4922 8.36563C15.9744 8.36491 15.3415 8.37836 15.0307 8.43183L15.3698 10.4029ZM17.632 10.4055C17.3541 10.3622 17.2278 10.1548 17.1998 10.0009C17.1823 9.90467 17.1866 9.76166 17.2691 9.61417C17.3584 9.45451 17.4916 9.37474 17.5794 9.34662L18.1896 11.2513C18.5301 11.1422 18.8304 10.92 19.0148 10.5902C19.1924 10.2725 19.2199 9.93157 19.1676 9.64344C19.0699 9.10573 18.6415 8.53844 17.9394 8.42923L17.632 10.4055ZM17.8845 9.29895H15.1073V11.299H17.8845V9.29895ZM15.5163 9.38642C15.677 9.45848 15.8229 9.65782 15.7993 9.90914C15.788 10.0294 15.7369 10.1517 15.6447 10.2494C15.5496 10.3501 15.4424 10.3917 15.3718 10.4035L15.0403 8.43118C14.3566 8.54607 13.8692 9.07239 13.8081 9.7217C13.7496 10.3433 14.0959 10.9415 14.6983 11.2115L15.5163 9.38642ZM15.206 8.41735H15.2002V10.4174H15.206V8.41735Z" fill="#0F0F0F" mask="url(#path-4-inside-2_4074_10546)"/>
<path d="M17.8437 12.5959C17.422 12.6631 16.9175 12.6347 16.4142 12.6063C15.9745 12.5815 15.5357 12.5568 15.1536 12.5959H17.8437Z" fill="#0F0F0F" stroke="#0F0F0F"/>
<mask id="path-7-inside-3_4074_10546" fill="white">
<path d="M15.1132 13.9932H17.8846C18.3726 14.1311 18.3029 14.8028 17.7974 14.8748C17.3617 14.9407 15.6245 14.9467 15.1945 14.8748C14.7239 14.7968 14.6658 14.1491 15.1132 13.9872V13.9932Z"/>
</mask>
<path d="M15.1132 13.9932H17.8846C18.3726 14.1311 18.3029 14.8028 17.7974 14.8748C17.3617 14.9407 15.6245 14.9467 15.1945 14.8748C14.7239 14.7968 14.6658 14.1491 15.1132 13.9872V13.9932Z" fill="#0F0F0F"/>
<path d="M15.1132 13.9932H14.1132V14.9932H15.1132V13.9932ZM17.8846 13.9932L18.1566 13.0309L18.0232 12.9932H17.8846V13.9932ZM17.7974 14.8748L17.6565 13.8847L17.6477 13.886L17.7974 14.8748ZM15.1945 14.8748L15.3596 13.8885L15.358 13.8882L15.1945 14.8748ZM15.1132 13.9872H16.1132V12.5617L14.7728 13.0469L15.1132 13.9872ZM15.1132 14.9932H17.8846V12.9932H15.1132V14.9932ZM17.6126 14.9555C17.5135 14.9275 17.3937 14.8537 17.3092 14.7235C17.2302 14.6019 17.2073 14.4703 17.2186 14.3582C17.2425 14.1216 17.4277 13.9173 17.6565 13.8848L17.9384 15.8648C18.6727 15.7603 19.1454 15.1841 19.2085 14.5592C19.2731 13.9202 18.9032 13.2419 18.1566 13.0309L17.6126 14.9555ZM17.6477 13.886C17.5164 13.9059 17.0492 13.9257 16.4924 13.9265C16.2304 13.9269 15.9726 13.923 15.7584 13.9151C15.6511 13.9111 15.5591 13.9063 15.4854 13.9009C15.4487 13.8981 15.4191 13.8955 15.396 13.893C15.3846 13.8918 15.3758 13.8907 15.3693 13.8899C15.3626 13.889 15.3596 13.8885 15.3596 13.8885L15.0294 15.8611C15.343 15.9135 15.9736 15.9272 16.4952 15.9265C17.0234 15.9258 17.6427 15.9096 17.9471 15.8635L17.6477 13.886ZM15.358 13.8882C15.9081 13.9794 15.9694 14.7408 15.4535 14.9275L14.7728 13.0469C13.3622 13.5574 13.5397 15.6143 15.0311 15.8613L15.358 13.8882ZM14.1132 13.9872V13.9932H16.1132V13.9872H14.1132Z" fill="#0F0F0F" mask="url(#path-7-inside-3_4074_10546)"/>
<mask id="path-9-inside-4_4074_10546" fill="white">
<path d="M16.5946 6.22681H19.1394C19.6042 6.32276 19.5984 7.00045 19.1452 7.1144H16.5481C16.1182 6.94648 16.1705 6.34675 16.5946 6.22681Z"/>
</mask>
<path d="M16.5946 6.22681H19.1394C19.6042 6.32276 19.5984 7.00045 19.1452 7.1144H16.5481C16.1182 6.94648 16.1705 6.34675 16.5946 6.22681Z" fill="#0F0F0F"/>
<path d="M16.5946 6.22681V5.22681H16.4559L16.3225 5.26455L16.5946 6.22681ZM19.1394 6.22681L19.3416 5.24746L19.2415 5.22681H19.1394V6.22681ZM19.1452 7.1144V8.1144H19.269L19.3891 8.08422L19.1452 7.1144ZM16.5481 7.1144L16.1843 8.04588L16.3598 8.1144H16.5481V7.1144ZM16.5946 7.22681H19.1394V5.22681H16.5946V7.22681ZM18.9372 7.20615C18.8101 7.17991 18.6817 7.10146 18.5935 6.98095C18.5131 6.87127 18.4866 6.75642 18.4866 6.66386C18.4866 6.48704 18.6052 6.21905 18.9014 6.14459L19.3891 8.08422C20.1384 7.89581 20.4866 7.232 20.4866 6.66386C20.4866 6.08482 20.1222 5.40861 19.3416 5.24746L18.9372 7.20615ZM19.1452 6.1144H16.5481V8.1144H19.1452V6.1144ZM16.9119 6.18293C17.1433 6.27332 17.2625 6.51404 17.2489 6.71887C17.2363 6.90771 17.1056 7.12153 16.8667 7.18907L16.3225 5.26455C15.0483 5.62489 14.7915 7.5019 16.1843 8.04588L16.9119 6.18293Z" fill="#0F0F0F" mask="url(#path-9-inside-4_4074_10546)"/>
<mask id="path-11-inside-5_4074_10546" fill="white">
<path d="M16.3567 5.08136C16.1475 4.84147 16.2579 4.38568 16.5833 4.3317C17.3328 4.21176 18.367 4.41566 19.1455 4.3317C19.6161 4.45765 19.5987 5.14733 19.099 5.2253C18.5994 5.30326 17.1062 5.28527 16.6646 5.2253C16.223 5.16532 16.409 5.14133 16.3509 5.07536L16.3567 5.08136Z"/>
</mask>
<path d="M16.3567 5.08136C16.1475 4.84147 16.2579 4.38568 16.5833 4.3317C17.3328 4.21176 18.367 4.41566 19.1455 4.3317C19.6161 4.45765 19.5987 5.14733 19.099 5.2253C18.5994 5.30326 17.1062 5.28527 16.6646 5.2253C16.223 5.16532 16.409 5.14133 16.3509 5.07536L16.3567 5.08136Z" fill="#0F0F0F"/>
<path d="M16.3567 5.08136L15.6384 5.77717L17.1104 4.42418L16.3567 5.08136ZM16.5833 4.3317L16.4252 3.34425L16.4196 3.34518L16.5833 4.3317ZM19.1455 4.3317L19.404 3.3657L19.2238 3.31746L19.0383 3.33747L19.1455 4.3317ZM16.3509 5.07536L17.0691 4.37956L15.6004 5.73629L16.3509 5.07536ZM17.1104 4.42418C17.2686 4.60557 17.2628 4.79812 17.2326 4.90604C17.1995 5.02442 17.0644 5.26555 16.7469 5.31822L16.4196 3.34518C15.7768 3.45183 15.4238 3.94785 15.3064 4.36759C15.192 4.77687 15.2356 5.31727 15.6029 5.73855L17.1104 4.42418ZM16.7413 5.31914C16.9906 5.27924 17.3259 5.2899 17.7969 5.31661C18.2134 5.34022 18.7626 5.37879 19.2527 5.32594L19.0383 3.33747C18.7498 3.36858 18.3927 3.34718 17.9101 3.31981C17.482 3.29554 16.9255 3.26422 16.4252 3.34427L16.7413 5.31914ZM18.887 5.29771C18.6091 5.22333 18.4788 4.95905 18.4869 4.75616C18.491 4.65466 18.5267 4.53653 18.6145 4.43096C18.7099 4.31624 18.8361 4.25422 18.9449 4.23725L19.2532 6.21334C20.0321 6.09181 20.4605 5.45153 20.4853 4.83682C20.5095 4.23811 20.1526 3.56602 19.404 3.3657L18.887 5.29771ZM18.9449 4.23725C18.7849 4.26221 18.3628 4.27932 17.8646 4.27703C17.3729 4.27478 16.9482 4.25463 16.7992 4.23439L16.53 6.2162C16.8226 6.25593 17.3653 6.27477 17.8555 6.27701C18.3392 6.27923 18.9135 6.26635 19.2532 6.21334L18.9449 4.23725ZM16.7992 4.23439C16.6962 4.2204 16.6728 4.21384 16.6864 4.21733C16.6925 4.21889 16.7435 4.23168 16.812 4.26387C16.8731 4.29259 17.0341 4.37582 17.1697 4.56036C17.2423 4.65912 17.2967 4.77236 17.3283 4.89454C17.3588 5.01296 17.3616 5.11563 17.3579 5.18783C17.3544 5.2556 17.3442 5.30703 17.3417 5.32013C17.3403 5.32701 17.3389 5.33371 17.3399 5.32897C17.3403 5.32721 17.3425 5.31684 17.3448 5.30426C17.3543 5.25406 17.3814 5.10232 17.3455 4.91261C17.3274 4.8166 17.2957 4.72291 17.2507 4.63434C17.2063 4.54705 17.1539 4.47412 17.1013 4.41443L15.6004 5.73629C15.5037 5.62651 15.4162 5.47389 15.3803 5.28396C15.3471 5.10842 15.3726 4.96985 15.3798 4.93212C15.3816 4.92265 15.3831 4.91535 15.3829 4.91662C15.3828 4.91668 15.3828 4.91675 15.3828 4.91698C15.3827 4.91717 15.3827 4.9175 15.3826 4.91786C15.3824 4.91858 15.3822 4.91978 15.3819 4.92121C15.3813 4.924 15.3803 4.92871 15.3792 4.93446C15.3755 4.95347 15.3644 5.01068 15.3606 5.08413C15.3513 5.26304 15.387 5.51187 15.5582 5.74479C15.7018 5.94021 15.8768 6.03421 15.9612 6.07392C16.0531 6.1171 16.1369 6.14109 16.1885 6.15437C16.2933 6.18128 16.4122 6.2002 16.53 6.2162L16.7992 4.23439ZM15.6326 5.77117L15.6384 5.77717L17.0749 4.38555L17.0691 4.37956L15.6326 5.77117Z" fill="#0F0F0F" mask="url(#path-11-inside-5_4074_10546)"/>
<path d="M19.7406 12.0621C19.7359 12.0605 19.7368 12.0604 19.7419 12.0626C19.7414 12.0624 19.741 12.0623 19.7406 12.0621Z" fill="#0F0F0F" stroke="#0F0F0F"/>
<mask id="path-14-inside-6_4074_10546" fill="white">
<path d="M19.6798 13.9933C19.8367 13.9633 20.6385 13.9573 20.7837 14.0052C21.173 14.1252 21.1265 14.8089 20.6675 14.8808C20.47 14.9108 19.7554 14.9048 19.5927 14.8269C19.2324 14.653 19.2789 14.0772 19.6798 13.9933Z"/>
</mask>
<path d="M19.6798 13.9933C19.8367 13.9633 20.6385 13.9573 20.7837 14.0052C21.173 14.1252 21.1265 14.8089 20.6675 14.8808C20.47 14.9108 19.7554 14.9048 19.5927 14.8269C19.2324 14.653 19.2789 14.0772 19.6798 13.9933Z" fill="#0F0F0F"/>
<path d="M19.6798 13.9933L19.4921 13.011L19.4834 13.0127L19.4748 13.0145L19.6798 13.9933ZM20.7837 14.0052L20.4701 14.9548L20.4797 14.9579L20.4893 14.9609L20.7837 14.0052ZM20.6675 14.8808L20.8176 15.8695L20.8224 15.8688L20.6675 14.8808ZM19.5927 14.8269L19.1579 15.7274L19.1605 15.7287L19.5927 14.8269ZM19.8676 14.9755C19.8307 14.9825 19.8153 14.9824 19.8451 14.9801C19.8656 14.9785 19.8969 14.9766 19.9385 14.9749C20.0214 14.9716 20.1261 14.9697 20.233 14.97C20.3409 14.9703 20.4401 14.9729 20.5138 14.9772C20.5513 14.9794 20.5728 14.9815 20.581 14.9825C20.5849 14.983 20.579 14.9824 20.5662 14.98C20.5573 14.9784 20.5205 14.9714 20.4701 14.9548L21.0974 13.0557C20.914 12.9951 20.6997 12.9847 20.6302 12.9806C20.5079 12.9735 20.3696 12.9704 20.2393 12.97C20.1079 12.9696 19.9738 12.9718 19.8576 12.9765C19.7681 12.9802 19.6156 12.9874 19.4921 13.011L19.8676 14.9755ZM20.4893 14.9609C20.3056 14.9043 20.1764 14.7754 20.1095 14.6484C20.0494 14.5342 20.0415 14.4308 20.0491 14.3573C20.0632 14.2225 20.184 13.9444 20.5126 13.8929L20.8224 15.8688C21.61 15.7453 21.9836 15.0894 22.0383 14.5648C22.0894 14.0756 21.8831 13.2976 21.0782 13.0496L20.4893 14.9609ZM20.5175 13.8922C20.5335 13.8897 20.5042 13.8941 20.4141 13.8963C20.337 13.8983 20.2435 13.898 20.1505 13.8949C20.0554 13.8917 19.9749 13.886 19.9196 13.8794C19.8916 13.8761 19.8818 13.8739 19.886 13.8748C19.8885 13.8753 19.9008 13.878 19.92 13.8838C19.9372 13.8891 19.9756 13.9015 20.0248 13.9251L19.1605 15.7287C19.3692 15.8287 19.6001 15.8555 19.6834 15.8654C19.8139 15.8809 19.9549 15.8895 20.0835 15.8938C20.3156 15.9016 20.6218 15.8993 20.8176 15.8695L20.5175 13.8922ZM20.0275 13.9263C20.2916 14.0539 20.3615 14.3108 20.3464 14.4707C20.3301 14.642 20.1944 14.9072 19.8848 14.972L19.4748 13.0145C18.7643 13.1633 18.4049 13.7583 18.3553 14.2819C18.3067 14.7942 18.5335 15.426 19.1579 15.7274L20.0275 13.9263Z" fill="#0F0F0F" mask="url(#path-14-inside-6_4074_10546)"/>
<path d="M19.836 9.91502C19.836 9.915 19.8363 9.91478 19.8369 9.91442L19.836 9.91502Z" fill="#0F0F0F" stroke="#0F0F0F"/>
</g>
<defs>
<clipPath id="clip0_4074_10546">
<rect width="24" height="24" fill="white" transform="translate(0 0.25)"/>
</clipPath>
</defs>
</svg>
