<svg width="25" height="24" viewBox="0 0 25 24" fill="none" xmlns="http://www.w3.org/2000/svg">
<path d="M23.7372 1.16717L23.7314 14.9481C23.6617 16.0156 22.4183 17.4609 21.3609 17.4609H14.5573V20.3576C14.5573 21.791 13.0234 22.8645 11.7568 22.9424C8.57291 23.1344 5.21469 22.7925 2.01334 22.9424C1.60663 22.9544 1.28127 22.5346 1.57758 22.1748C1.72283 21.9949 2.21669 22.0069 2.47233 21.9289C3.18116 21.707 3.76217 20.9454 3.82608 20.1837C3.91904 19.0502 3.74474 13.9225 3.82608 12.7771C3.94809 12.2913 4.63368 12.3872 4.68597 12.897C4.62787 14.0485 4.77893 19.0862 4.69759 20.2317C4.6453 20.9394 4.34318 21.5151 3.91323 22.0489H11.8498C12.6632 22.0489 13.6974 21.1373 13.6974 20.2737V17.4669H10.8911C9.93828 17.4669 8.52062 16.0516 8.52062 15.068V13.7426H6.58587C6.29536 13.7426 6.09201 13.3648 6.20821 13.0829C6.23145 13.017 6.40575 12.849 6.45804 12.849H8.45671L8.52062 12.7831V11.5236L8.45671 11.4577H6.45804C6.40575 11.4577 6.23145 11.2837 6.20821 11.2238C6.09782 10.9359 6.30117 10.5641 6.58587 10.5641H8.52062V8.47702C8.52062 7.93727 8.05581 7.22359 7.62006 6.93572C6.38832 6.13209 4.87189 6.93572 4.69178 8.38706L4.68016 12.909C4.49424 13.4008 3.84932 13.3048 3.82027 12.7831C3.90742 11.3377 3.70988 9.76644 3.82027 8.33309C3.91323 7.13963 5.06363 5.70628 6.27793 5.70628H13.1687V1.23231C13.1687 1.01041 13.4011 0.764526 13.6277 0.764526C13.9589 0.764526 14.8594 1.45421 15.2371 1.56216C15.6728 1.46021 16.463 0.776521 16.8523 0.770524C17.1602 0.770524 18.1072 1.44222 18.4559 1.56216C18.88 1.46621 19.6992 0.776521 20.0711 0.770524C20.3848 0.770524 21.3144 1.44822 21.6804 1.55617L23.2259 0.788515C23.4874 0.746535 23.5978 0.884472 23.7372 1.07638V1.16717ZM22.8599 1.97598C22.5403 2.08393 22.0174 2.50973 21.7095 2.51573C21.4016 2.52173 20.4952 1.89201 20.0943 1.74808C19.8154 1.73009 18.8916 2.50374 18.4907 2.51573C18.0898 2.52772 17.2706 1.86203 16.8348 1.75408C16.6141 1.75408 15.76 2.38379 15.452 2.47975C14.9233 2.64167 14.5224 2.09592 14.0286 1.97598C14.0286 5.50237 14.0286 9.02277 14.0286 12.5492C14.0286 13.5147 14.1854 14.8461 13.8194 15.7397C13.4534 16.6333 13.5057 16.2795 13.3314 16.5613H21.2679C21.9128 16.5613 22.8541 15.5358 22.8541 14.8761V1.97598H22.8599ZM13.1629 6.59987H8.64263C9.04353 7.12764 9.32822 7.69138 9.38051 8.37507C9.53738 10.4501 9.20621 12.7771 9.38051 14.8401C9.55481 16.9032 11.3443 17.1071 12.4947 16.1175C12.7329 15.9136 13.1687 15.2839 13.1687 14.9721V6.59987H13.1629Z" fill="#0F0F0F" stroke="#0F0F0F" stroke-width="0.5"/>
<path d="M6.49219 19.1288L11.8781 19.1168C12.4243 19.1828 12.4359 19.9504 11.8781 20.0164H6.56772C6.05644 19.9504 5.99834 19.2728 6.49219 19.1288Z" fill="#0F0F0F"/>
<path d="M15.7998 9.16735C16.2182 9.09538 17.9612 9.10138 18.3853 9.16735C18.8095 9.23332 18.9896 9.88702 18.4841 10.049H15.7069C15.2653 9.85104 15.306 9.25131 15.8057 9.16735H15.7998Z" fill="#0F0F0F"/>
<path d="M15.7591 11.4583C16.1425 11.3863 18.0482 11.3863 18.4433 11.4523C18.8384 11.5183 18.9372 12.2679 18.4433 12.3459C17.6532 12.4719 16.5725 12.2619 15.7533 12.3459C15.3117 12.244 15.2885 11.5483 15.7591 11.4583Z" fill="#0F0F0F"/>
<path d="M15.7128 13.7432H18.4842C18.9722 13.8811 18.9025 14.5528 18.397 14.6248C17.9613 14.6907 16.2241 14.6967 15.7941 14.6248C15.3235 14.5468 15.2654 13.8991 15.7128 13.7372V13.7432Z" fill="#0F0F0F"/>
<path d="M17.1942 5.97681H19.739C20.2038 6.07276 20.198 6.75045 19.7448 6.8644H17.1477C16.7178 6.69648 16.7701 6.09675 17.1942 5.97681Z" fill="#0F0F0F"/>
<path d="M16.9563 4.83136C16.7471 4.59147 16.8575 4.13568 17.1829 4.0817C17.9324 3.96176 18.9666 4.16566 19.7451 4.0817C20.2157 4.20765 20.1983 4.89733 19.6986 4.9753C19.199 5.05326 17.7058 5.03527 17.2642 4.9753C16.8227 4.91532 17.0086 4.89133 16.9505 4.82536L16.9563 4.83136Z" fill="#0F0F0F"/>
<path d="M20.0883 12.238C19.8268 11.9981 19.9547 11.5303 20.28 11.4524C20.6054 11.3744 21.1457 11.4224 21.3026 11.4524C21.7209 11.5363 21.779 12.214 21.3375 12.322C21.1225 12.3759 20.2452 12.3819 20.0883 12.238Z" fill="#0F0F0F"/>
<path d="M20.2794 13.7433C20.4363 13.7133 21.2381 13.7073 21.3833 13.7552C21.7726 13.8752 21.7261 14.5589 21.2671 14.6308C21.0696 14.6608 20.355 14.6548 20.1923 14.5769C19.8321 14.403 19.8785 13.8272 20.2794 13.7433Z" fill="#0F0F0F"/>
<path d="M20.3668 9.16727C20.5644 9.13128 21.2209 9.13128 21.3894 9.20925C21.7613 9.39516 21.709 9.9829 21.3081 10.0489C20.9072 10.1148 20.2913 10.0729 20.1693 10.0189C19.8033 9.85695 19.8846 9.25123 20.3668 9.16727Z" fill="#0F0F0F"/>
</svg>
