<svg width="25" height="25" viewBox="0 0 25 25" fill="none" xmlns="http://www.w3.org/2000/svg">
<path d="M6.03711 11.8125C6.03711 8.9845 6.03711 7.5695 6.91611 6.6915C7.79411 5.8125 9.20911 5.8125 12.0371 5.8125H15.0371C17.8651 5.8125 19.2801 5.8125 20.1581 6.6915C21.0371 7.5695 21.0371 8.9845 21.0371 11.8125V16.8125C21.0371 19.6405 21.0371 21.0555 20.1581 21.9335C19.2801 22.8125 17.8651 22.8125 15.0371 22.8125H12.0371C9.20911 22.8125 7.79411 22.8125 6.91611 21.9335C6.03711 21.0555 6.03711 19.6405 6.03711 16.8125V11.8125Z" stroke="black" stroke-width="1.5"/>
<path d="M6.03711 19.8125C5.24146 19.8125 4.4784 19.4964 3.91579 18.9338C3.35318 18.3712 3.03711 17.6081 3.03711 16.8125V10.8125C3.03711 7.0415 3.03711 5.1555 4.20911 3.9845C5.38111 2.8135 7.26611 2.8125 11.0371 2.8125H15.0371C15.8328 2.8125 16.5958 3.12857 17.1584 3.69118C17.721 4.25379 18.0371 5.01685 18.0371 5.8125" stroke="black" stroke-width="1.5"/>
</svg>
