<svg width="25" height="25" viewBox="0 0 25 25" fill="none" xmlns="http://www.w3.org/2000/svg">
<path d="M4.78661 6.71298L6.89961 19.476C6.99626 20.0603 7.2972 20.5913 7.74881 20.9744C8.20042 21.3575 8.77338 21.5679 9.36561 21.568H12.7136M19.4116 6.71298L17.2996 19.476C17.203 20.0603 16.902 20.5913 16.4504 20.9744C15.9988 21.3575 15.4258 21.5679 14.8336 21.568H11.4856M10.1216 11.616V16.665M14.0776 11.616V16.665M2.84961 6.71298H21.3496M14.8766 6.71298V4.93298C14.8766 4.53516 14.7186 4.15363 14.4373 3.87232C14.156 3.59102 13.7744 3.43298 13.3766 3.43298H10.8226C10.4248 3.43298 10.0433 3.59102 9.76195 3.87232C9.48064 4.15363 9.32261 4.53516 9.32261 4.93298V6.71298H14.8766Z" stroke="black" stroke-width="1.5" stroke-linecap="round" stroke-linejoin="round"/>
</svg>
