<svg width="24" height="24" viewBox="0 0 24 24" fill="none" xmlns="http://www.w3.org/2000/svg">
<path d="M20.9524 3.04809C20.2811 2.37759 19.3711 2.00098 18.4224 2.00098C17.4736 2.00098 16.5636 2.37759 15.8924 3.04809L3.94036 15.0001C3.53389 15.4061 3.24827 15.9171 3.11536 16.4761L2.02036 21.0781C1.99071 21.2027 1.99349 21.3329 2.02843 21.4562C2.06337 21.5795 2.12931 21.6917 2.21996 21.7823C2.31061 21.8728 2.42295 21.9386 2.54626 21.9734C2.66957 22.0082 2.79974 22.0109 2.92436 21.9811L7.52536 20.8851C8.08466 20.7524 8.59604 20.4667 9.00236 20.0601L20.9524 8.11009C21.6229 7.43883 21.9995 6.52886 21.9995 5.58009C21.9995 4.63132 21.6229 3.72136 20.9524 3.05009M16.9524 4.11009C17.1454 3.91705 17.3746 3.76392 17.6268 3.65945C17.879 3.55497 18.1494 3.5012 18.4224 3.5012C18.6954 3.5012 18.9657 3.55497 19.2179 3.65945C19.4701 3.76392 19.6993 3.91705 19.8924 4.11009C20.0854 4.30314 20.2385 4.53231 20.343 4.78453C20.4475 5.03676 20.5012 5.30709 20.5012 5.58009C20.5012 5.8531 20.4475 6.12343 20.343 6.37565C20.2385 6.62787 20.0854 6.85705 19.8924 7.05009L19.0004 7.93909L16.0604 5.00009L16.9524 4.11009ZM15.0004 6.06209L17.9404 9.00009L7.94036 19.0001C7.73036 19.2101 7.46636 19.3571 7.17736 19.4261L3.76136 20.2401L4.57436 16.8241C4.64336 16.5341 4.79136 16.2701 5.00136 16.0601L15.0004 6.06209Z" fill="black"/>
</svg>
