<svg width="24" height="24" viewBox="0 0 24 24" fill="none" xmlns="http://www.w3.org/2000/svg">
<path d="M4.79879 5.15835L4.83172 5.12542C5.01663 4.94051 5.31644 4.94051 5.50135 5.12542L7.65672 7.28079C7.84163 7.46571 7.84163 7.76551 7.65672 7.95042L7.62379 7.98335C7.43888 8.16826 7.13908 8.16826 6.95417 7.98335L4.79879 5.82798C4.61388 5.64306 4.61388 5.34326 4.79879 5.15835Z" stroke="#0F0F0F" stroke-width="1.5"/>
<path d="M1.86719 12.2902V12.2436C1.86719 11.9821 2.07918 11.7701 2.34068 11.7701H5.38884C5.65035 11.7701 5.86234 11.9821 5.86234 12.2436V12.2902C5.86234 12.5517 5.65035 12.7637 5.38884 12.7637H2.34068C2.07918 12.7637 1.86719 12.5517 1.86719 12.2902Z" stroke="#0F0F0F" stroke-width="1.5"/>
<path d="M11.909 1.91406H11.9556C12.2171 1.91406 12.4291 2.12605 12.4291 2.38756V5.43572C12.4291 5.69722 12.2171 5.90921 11.9556 5.90921H11.909C11.6475 5.90921 11.4355 5.69722 11.4355 5.43572V2.38756C11.4355 2.12605 11.6475 1.91406 11.909 1.91406Z" stroke="#0F0F0F" stroke-width="1.5"/>
<path d="M4.82925 19.3467L4.79632 19.3138C4.61141 19.1289 4.61141 18.8291 4.79632 18.6442L6.95169 16.4888C7.13661 16.3039 7.43641 16.3039 7.62132 16.4888L7.65425 16.5217C7.83916 16.7066 7.83916 17.0064 7.65425 17.1913L5.49888 19.3467C5.31396 19.5316 5.01416 19.5316 4.82925 19.3467Z" stroke="#0F0F0F" stroke-width="1.5"/>
<path d="M11.909 18.0908H11.9556C12.2171 18.0908 12.4291 18.3028 12.4291 18.5643V21.6125C12.4291 21.874 12.2171 22.086 11.9556 22.086H11.909C11.6475 22.086 11.4355 21.874 11.4355 21.6125V18.5643C11.4355 18.3028 11.6475 18.0908 11.909 18.0908Z" stroke="#0F0F0F" stroke-width="1.5"/>
<path d="M18.1367 12.2902V12.2436C18.1367 11.9821 18.3487 11.7701 18.6102 11.7701H21.6584C21.9199 11.7701 22.1319 11.9821 22.1319 12.2436V12.2902C22.1319 12.5517 21.9199 12.7637 21.6584 12.7637H18.6102C18.3487 12.7637 18.1367 12.5517 18.1367 12.2902Z" stroke="#0F0F0F" stroke-width="1.5"/>
<path d="M16.2109 16.5177L16.2438 16.4848C16.4287 16.2999 16.7285 16.2999 16.9135 16.4848L19.0688 18.6402C19.2537 18.8251 19.2537 19.1249 19.0688 19.3098L19.0359 19.3427C18.851 19.5276 18.5512 19.5276 18.3663 19.3427L16.2109 17.1874C16.026 17.0024 16.026 16.7026 16.2109 16.5177Z" stroke="#0F0F0F" stroke-width="1.5"/>
</svg>
