<svg width="25" height="24" viewBox="0 0 25 24" fill="none" xmlns="http://www.w3.org/2000/svg">
<path d="M18.2002 8C18.2002 6.4087 17.5681 4.88258 16.4428 3.75736C15.3176 2.63214 13.7915 2 12.2002 2C10.6089 2 9.08277 2.63214 7.95755 3.75736C6.83234 4.88258 6.2002 6.4087 6.2002 8C6.2002 15 3.2002 17 3.2002 17H21.2002C21.2002 17 18.2002 15 18.2002 8Z" stroke="#0F0F0F" stroke-width="1.5" stroke-linecap="round" stroke-linejoin="round"/>
<path d="M13.9297 21C13.7539 21.3031 13.5016 21.5547 13.198 21.7295C12.8943 21.9044 12.5501 21.9965 12.1997 21.9965C11.8493 21.9965 11.5051 21.9044 11.2015 21.7295C10.8979 21.5547 10.6455 21.3031 10.4697 21" stroke="#0F0F0F" stroke-width="1.5" stroke-linecap="round" stroke-linejoin="round"/>
</svg>
