<svg width="25" height="24" viewBox="0 0 25 24" fill="none" xmlns="http://www.w3.org/2000/svg">
<path d="M12.4003 14.3465C13.6963 14.3465 14.7469 13.2959 14.7469 11.9999C14.7469 10.7039 13.6963 9.65332 12.4003 9.65332C11.1043 9.65332 10.0537 10.7039 10.0537 11.9999C10.0537 13.2959 11.1043 14.3465 12.4003 14.3465Z" stroke="#0F0F0F" stroke-width="1.5" stroke-linecap="round" stroke-linejoin="round"/>
<path d="M18.4549 14.4545C18.346 14.7013 18.3135 14.9751 18.3617 15.2405C18.4098 15.5059 18.5363 15.7508 18.7249 15.9436L18.774 15.9927C18.9262 16.1447 19.0469 16.3252 19.1292 16.5238C19.2116 16.7225 19.254 16.9354 19.254 17.1505C19.254 17.3655 19.2116 17.5784 19.1292 17.7771C19.0469 17.9757 18.9262 18.1562 18.774 18.3082C18.6221 18.4603 18.4416 18.581 18.2429 18.6634C18.0443 18.7457 17.8313 18.7881 17.6163 18.7881C17.4013 18.7881 17.1883 18.7457 16.9897 18.6634C16.791 18.581 16.6105 18.4603 16.4586 18.3082L16.4095 18.2591C16.2167 18.0705 15.9717 17.9439 15.7063 17.8958C15.4409 17.8477 15.1672 17.8802 14.9204 17.9891C14.6784 18.0928 14.472 18.265 14.3266 18.4845C14.1813 18.704 14.1033 18.9613 14.1022 19.2245V19.3636C14.1022 19.7976 13.9298 20.2138 13.6229 20.5207C13.3161 20.8276 12.8998 21 12.4658 21C12.0319 21 11.6156 20.8276 11.3088 20.5207C11.0019 20.2138 10.8295 19.7976 10.8295 19.3636V19.29C10.8231 19.0192 10.7355 18.7565 10.5779 18.5362C10.4203 18.3159 10.2001 18.1481 9.94585 18.0545C9.69907 17.9456 9.42532 17.9131 9.15991 17.9613C8.89449 18.0094 8.64958 18.1359 8.45675 18.3245L8.40766 18.3736C8.25569 18.5258 8.07522 18.6465 7.87657 18.7288C7.67791 18.8112 7.46498 18.8536 7.24994 18.8536C7.03489 18.8536 6.82196 18.8112 6.62331 18.7288C6.42466 18.6465 6.24418 18.5258 6.09221 18.3736C5.94007 18.2217 5.81937 18.0412 5.73702 17.8425C5.65467 17.6439 5.61229 17.431 5.61229 17.2159C5.61229 17.0009 5.65467 16.7879 5.73702 16.5893C5.81937 16.3906 5.94007 16.2102 6.09221 16.0582L6.1413 16.0091C6.32992 15.8163 6.45645 15.5714 6.50458 15.3059C6.5527 15.0405 6.52021 14.7668 6.4113 14.52C6.30758 14.278 6.13537 14.0716 5.91586 13.9263C5.69635 13.7809 5.43913 13.7029 5.17585 13.7018H5.03675C4.60276 13.7018 4.18655 13.5294 3.87967 13.2225C3.57279 12.9157 3.40039 12.4994 3.40039 12.0655C3.40039 11.6315 3.57279 11.2152 3.87967 10.9084C4.18655 10.6015 4.60276 10.4291 5.03675 10.4291H5.11039C5.3812 10.4228 5.64385 10.3351 5.86418 10.1775C6.08451 10.0199 6.25234 9.79969 6.34585 9.54545C6.45476 9.29868 6.48725 9.02493 6.43912 8.75952C6.391 8.4941 6.26447 8.24919 6.07585 8.05636L6.02675 8.00727C5.87461 7.8553 5.75391 7.67483 5.67157 7.47617C5.58922 7.27752 5.54683 7.06459 5.54683 6.84955C5.54683 6.6345 5.58922 6.42157 5.67157 6.22292C5.75391 6.02426 5.87461 5.84379 6.02675 5.69182C6.17873 5.53967 6.3592 5.41898 6.55785 5.33663C6.7565 5.25428 6.96944 5.21189 7.18448 5.21189C7.39953 5.21189 7.61246 5.25428 7.81111 5.33663C8.00976 5.41898 8.19023 5.53967 8.34221 5.69182L8.3913 5.74091C8.58413 5.92953 8.82904 6.05606 9.09445 6.10419C9.35987 6.15231 9.63361 6.11982 9.88039 6.01091H9.94585C10.1878 5.90719 10.3942 5.73498 10.5396 5.51547C10.685 5.29596 10.763 5.03873 10.764 4.77545V4.63636C10.764 4.20237 10.9364 3.78616 11.2433 3.47928C11.5502 3.1724 11.9664 3 12.4004 3C12.8344 3 13.2506 3.1724 13.5575 3.47928C13.8644 3.78616 14.0368 4.20237 14.0368 4.63636V4.71C14.0378 4.97328 14.1158 5.23051 14.2612 5.45002C14.4066 5.66953 14.6129 5.84174 14.8549 5.94545C15.1017 6.05437 15.3755 6.08686 15.6409 6.03873C15.9063 5.99061 16.1512 5.86408 16.344 5.67545L16.3931 5.62636C16.5451 5.47422 16.7256 5.35352 16.9242 5.27118C17.1229 5.18883 17.3358 5.14644 17.5508 5.14644C17.7659 5.14644 17.9788 5.18883 18.1775 5.27118C18.3761 5.35352 18.5566 5.47422 18.7086 5.62636C18.8607 5.77834 18.9814 5.95881 19.0638 6.15746C19.1461 6.35611 19.1885 6.56905 19.1885 6.78409C19.1885 6.99913 19.1461 7.21207 19.0638 7.41072C18.9814 7.60937 18.8607 7.78984 18.7086 7.94182L18.6595 7.99091C18.4709 8.18374 18.3443 8.42865 18.2962 8.69406C18.2481 8.95948 18.2806 9.23322 18.3895 9.48V9.54545C18.4932 9.78745 18.6654 9.99383 18.8849 10.1392C19.1044 10.2846 19.3617 10.3626 19.6249 10.3636H19.764C20.198 10.3636 20.6142 10.536 20.9211 10.8429C21.228 11.1498 21.4004 11.566 21.4004 12C21.4004 12.434 21.228 12.8502 20.9211 13.1571C20.6142 13.464 20.198 13.6364 19.764 13.6364H19.6904C19.4271 13.6374 19.1699 13.7154 18.9504 13.8608C18.7309 14.0062 18.5587 14.2126 18.4549 14.4545V14.4545Z" stroke="#0F0F0F" stroke-width="1.5" stroke-linecap="round" stroke-linejoin="round"/>
</svg>
