<svg width="25" height="24" viewBox="0 0 25 24" fill="none" xmlns="http://www.w3.org/2000/svg">
<path d="M16.3572 7.64062C16.3572 7.54071 16.2754 7.45897 16.1755 7.45897H14.938C14.8698 7.45897 14.8063 7.49757 14.7767 7.55888L12.8535 11.3918H12.7785L10.8552 7.55888C10.8402 7.52899 10.8171 7.50384 10.7887 7.48621C10.7602 7.46858 10.7275 7.45915 10.694 7.45897H9.42922C9.3997 7.45897 9.37018 7.46578 9.34293 7.48167C9.25438 7.52936 9.22259 7.64062 9.27027 7.72691L11.6295 12.0776H10.3352C10.2353 12.0776 10.1536 12.1593 10.1536 12.2593V12.8746C10.1536 12.9745 10.2353 13.0563 10.3352 13.0563H12.061V13.9419H10.3352C10.2353 13.9419 10.1536 14.0236 10.1536 14.1235V14.7389C10.1536 14.8388 10.2353 14.9205 10.3352 14.9205H12.061V16.3602C12.061 16.4601 12.1427 16.5418 12.2426 16.5418H13.3757C13.4756 16.5418 13.5574 16.4601 13.5574 16.3602V14.9183H15.2899C15.3898 14.9183 15.4716 14.8365 15.4716 14.7366V14.1212C15.4716 14.0213 15.3898 13.9396 15.2899 13.9396H13.5574V13.054H15.2899C15.3898 13.054 15.4716 12.9723 15.4716 12.8723V12.257C15.4716 12.1571 15.3898 12.0753 15.2899 12.0753H13.982L16.3367 7.72464C16.3481 7.69966 16.3572 7.67014 16.3572 7.64062ZM4.76064 11.8233C4.80329 9.75377 5.64556 7.78115 7.11082 6.31907C7.84881 5.58109 8.70713 4.99978 9.6631 4.5956C10.6531 4.17779 11.7045 3.96434 12.7876 3.96434C13.873 3.96434 14.9243 4.17552 15.9121 4.5956C16.8681 4.99978 17.7264 5.58109 18.4644 6.31907C18.6915 6.54614 18.9026 6.78456 19.0979 7.03207L17.9626 7.91992C17.9355 7.94084 17.9149 7.96898 17.9031 8.00108C17.8914 8.03319 17.8889 8.06796 17.896 8.10141C17.9031 8.13485 17.9196 8.16561 17.9434 8.19015C17.9672 8.21468 17.9975 8.23199 18.0307 8.24009L21.5912 9.10977C21.7047 9.13702 21.816 9.05074 21.816 8.93493L21.8341 5.26773C21.8341 5.11559 21.6593 5.0293 21.5412 5.12467L20.4558 5.97392C18.6756 3.6964 15.903 2.23633 12.7899 2.23633C7.46506 2.23633 3.13481 6.50754 3.03717 11.8142C3.03656 11.8384 3.04081 11.8625 3.04967 11.8851C3.05853 11.9077 3.07181 11.9282 3.08874 11.9456C3.10567 11.9629 3.1259 11.9767 3.14824 11.9861C3.17058 11.9956 3.19458 12.0004 3.21882 12.0004H4.58125C4.67889 12.0004 4.75837 11.9209 4.76064 11.8233ZM22.3836 12.0004H21.0212C20.9236 12.0004 20.8418 12.0799 20.8396 12.1775C20.7969 14.247 19.9546 16.2196 18.4894 17.6817C17.7582 18.416 16.8914 19.0013 15.9371 19.4052C14.9471 19.823 13.8957 20.0364 12.8126 20.0364C11.7295 20.0364 10.6758 19.8253 9.68808 19.4052C8.7338 19.0013 7.86701 18.416 7.1358 17.6817C6.90873 17.4546 6.69755 17.2162 6.50227 16.9687L7.63536 16.0809C7.66241 16.0599 7.683 16.0318 7.69477 15.9997C7.70654 15.9676 7.709 15.9328 7.70189 15.8994C7.69477 15.8659 7.67836 15.8352 7.65454 15.8106C7.63072 15.7861 7.60046 15.7688 7.56724 15.7607L4.00676 14.891C3.89322 14.8638 3.78196 14.95 3.78196 15.0659L3.76379 18.7376C3.76379 18.8897 3.93864 18.976 4.05672 18.8806L5.14212 18.0314C6.9269 20.3044 9.69944 21.7645 12.8126 21.7645C18.1374 21.7645 22.4677 17.4932 22.5653 12.1866C22.5659 12.1624 22.5616 12.1382 22.5528 12.1157C22.5439 12.0931 22.5306 12.0725 22.5137 12.0552C22.4968 12.0378 22.4766 12.0241 22.4542 12.0146C22.4319 12.0052 22.4079 12.0004 22.3836 12.0004Z" fill="#0F0F0F"/>
</svg>
