<svg width="24" height="24" fill="none" xmlns="http://www.w3.org/2000/svg"><path d="M2.768 4.931a3.37 3.37 0 0 0-.987 2.383v9.372a3.37 3.37 0 0 0 3.37 3.37h13.698a3.37 3.37 0 0 0 3.37-3.37V7.314a3.37 3.37 0 0 0-3.37-3.37H5.151a3.37 3.37 0 0 0-2.383.987Zm1.197 1.197a1.677 1.677 0 0 1 1.186-.492h13.698a1.678 1.678 0 0 1 1.678 1.678v.956H3.473v-.956c0-.445.177-.872.492-1.186Zm0 11.745a1.678 1.678 0 0 1-.492-1.187V9.962h17.054v6.724a1.678 1.678 0 0 1-1.678 1.678H5.151c-.445 0-.872-.177-1.186-.491Zm13.803-3.835h-2.163a.846.846 0 1 0 0 1.692h2.163a.846.846 0 0 0 0-1.692Z" fill="#0F0F0F" stroke="#0F0F0F" stroke-width=".25"/></svg>