<svg width="25" height="26" fill="none" xmlns="http://www.w3.org/2000/svg"><path d="M14.584 9.691h-2.605a1.563 1.563 0 0 0 0 3.125h1.042a1.563 1.563 0 0 1 0 3.125h-2.605m2.084 1.042V15.94m0-6.25V8.65m9.375-2.084a1.042 1.042 0 0 0-1.041-1.041h-3.125a4.167 4.167 0 0 0 4.166 4.166V6.566ZM3.125 9.691a4.167 4.167 0 0 0 4.167-4.166H4.167a1.042 1.042 0 0 0-1.042 1.041v3.125Zm18.75 6.25a4.167 4.167 0 0 0-4.166 4.167h3.125a1.042 1.042 0 0 0 1.041-1.042v-3.125Zm-18.75 3.125a1.042 1.042 0 0 0 1.042 1.042h3.125a4.167 4.167 0 0 0-4.167-4.167v3.125Z" stroke="#0F0F0F" stroke-width="1.5" stroke-linecap="round" stroke-linejoin="round"/><path d="M20.834 5.525H4.166c-.575 0-1.041.466-1.041 1.041v12.5c0 .575.466 1.042 1.042 1.042h16.667c.575 0 1.041-.466 1.041-1.042v-12.5c0-.575-.466-1.041-1.041-1.041Z" stroke="#0F0F0F" stroke-width="1.5" stroke-linecap="round" stroke-linejoin="round"/></svg>