<svg width="25" height="26" fill="none" xmlns="http://www.w3.org/2000/svg"><path d="M14.584 9.692h-2.605a1.563 1.563 0 0 0 0 3.125h1.042a1.563 1.563 0 0 1 0 3.125h-2.605m2.084 1.041v-1.041m0-6.25V8.65m9.375-2.083a1.042 1.042 0 0 0-1.041-1.042h-3.125a4.167 4.167 0 0 0 4.166 4.167V6.567ZM3.125 9.692a4.167 4.167 0 0 0 4.167-4.167H4.167a1.042 1.042 0 0 0-1.042 1.042v3.125Zm18.75 6.25a4.167 4.167 0 0 0-4.166 4.166h3.125a1.042 1.042 0 0 0 1.041-1.041v-3.125Zm-18.75 3.125a1.041 1.041 0 0 0 1.042 1.041h3.125a4.167 4.167 0 0 0-4.167-4.166v3.125Z" stroke="#0F0F0F" stroke-width="1.5" stroke-linecap="round" stroke-linejoin="round"/><path d="M20.834 5.525H4.166c-.575 0-1.041.466-1.041 1.042v12.5c0 .575.466 1.041 1.042 1.041h16.667c.575 0 1.041-.466 1.041-1.041v-12.5c0-.575-.466-1.042-1.041-1.042Z" stroke="#0F0F0F" stroke-width="1.5" stroke-linecap="round" stroke-linejoin="round"/></svg>