<svg width="25" height="26" viewBox="0 0 25 26" fill="none" xmlns="http://www.w3.org/2000/svg">
<path d="M14.5835 9.6914H11.979C11.5646 9.6914 11.1672 9.85602 10.8741 10.149C10.5811 10.4421 10.4165 10.8395 10.4165 11.2539C10.4165 11.6683 10.5811 12.0657 10.8741 12.3588C11.1672 12.6518 11.5646 12.8164 11.979 12.8164H13.021C13.4354 12.8164 13.8328 12.981 14.1259 13.274C14.4189 13.5671 14.5835 13.9645 14.5835 14.3789C14.5835 14.7933 14.4189 15.1907 14.1259 15.4838C13.8328 15.7768 13.4354 15.9414 13.021 15.9414H10.4165M12.5 16.9829V15.9414M12.5 9.6914V8.6499M21.875 6.5664C21.875 6.29018 21.7653 6.02527 21.57 5.82995C21.3746 5.63463 21.1097 5.5249 20.8335 5.5249H17.7085C17.7085 6.62993 18.1475 7.68969 18.9288 8.47106C19.7102 9.25243 20.77 9.6914 21.875 9.6914V6.5664ZM3.125 9.6914C4.23002 9.6914 5.28979 9.25243 6.07116 8.47106C6.85253 7.68969 7.2915 6.62993 7.2915 5.5249H4.1665C3.89028 5.5249 3.62537 5.63463 3.43005 5.82995C3.23473 6.02527 3.125 6.29018 3.125 6.5664V9.6914ZM21.875 15.9414C20.77 15.9414 19.7102 16.3804 18.9288 17.1617C18.1475 17.9431 17.7085 19.0029 17.7085 20.1079H20.8335C21.1097 20.1079 21.3746 19.9982 21.57 19.8029C21.7653 19.6075 21.875 19.3426 21.875 19.0664V15.9414ZM3.125 19.0664C3.125 19.3426 3.23473 19.6075 3.43005 19.8029C3.62537 19.9982 3.89028 20.1079 4.1665 20.1079H7.2915C7.2915 19.0029 6.85253 17.9431 6.07116 17.1617C5.28979 16.3804 4.23002 15.9414 3.125 15.9414V19.0664Z" stroke="#0F0F0F" stroke-width="1.5" stroke-linecap="round" stroke-linejoin="round"/>
<path d="M20.8335 5.5249H4.1665C3.5915 5.5249 3.125 5.9909 3.125 6.5664V19.0664C3.125 19.6414 3.5915 20.1079 4.1665 20.1079H20.8335C21.4085 20.1079 21.875 19.6419 21.875 19.0664V6.5664C21.875 5.9914 21.4085 5.5249 20.8335 5.5249Z" stroke="#0F0F0F" stroke-width="1.5" stroke-linecap="round" stroke-linejoin="round"/>
</svg>
