<svg width="25" height="25" fill="none" xmlns="http://www.w3.org/2000/svg"><path d="m2.75 12.816 2 1m17-.5-2 .5m-11.5 4.5.246-.614c.365-.913.548-1.37.929-1.628.38-.258.872-.258 1.856-.258h1.938c.984 0 1.476 0 1.856.258.38.258.564.715.93 1.628l.245.614m-14-.5v2.882c0 .38.24.725.622.894.247.11.483.224.769.224h1.718c.286 0 .522-.114.77-.224.38-.169.621-.515.621-.894v-1.882m11 0v1.882c0 .38.24.725.622.894.247.11.483.224.769.224h1.718c.286 0 .522-.114.77-.224.38-.169.621-.515.621-.894v-2.882m-2-8.5 1-.5m-17 .5-1-.5m1.5 1 1.088-3.265c.44-1.32.66-1.98 1.184-2.357.524-.377 1.22-.378 2.611-.378h5.234c1.391 0 2.087 0 2.61.378.525.377.745 1.037 1.185 2.357l1.088 3.265" stroke="#0F0F0F" stroke-width="1.5" stroke-linecap="round" stroke-linejoin="round"/><path d="M4.75 9.816h15c.957 1.014 2.5 2.425 2.5 4v3.47c0 .57-.38 1.05-.883 1.117l-3.117.413h-12l-3.117-.413c-.503-.065-.883-.545-.883-1.117v-3.47c0-1.575 1.543-2.986 2.5-4Z" stroke="#0F0F0F" stroke-width="1.5" stroke-linecap="round" stroke-linejoin="round"/></svg>