<svg width="24" height="25" fill="none" xmlns="http://www.w3.org/2000/svg"><g clip-path="url(#a)"><path d="m23.138 1.417-.006 13.781c-.07 1.068-1.313 2.513-2.37 2.513h-6.804v2.897c0 1.433-1.534 2.507-2.8 2.585-3.185.191-6.543-.15-9.744 0-.407.012-.732-.408-.436-.768.145-.18.64-.168.895-.246.709-.222 1.29-.983 1.353-1.745.093-1.134-.08-6.261 0-7.407.122-.486.808-.39.86.12-.058 1.152.093 6.19.012 7.335-.052.707-.354 1.283-.784 1.817h7.936c.814 0 1.848-.912 1.848-1.775v-2.807H10.29c-.952 0-2.37-1.415-2.37-2.399v-1.325H5.986c-.29 0-.494-.378-.377-.66.023-.066.197-.234.25-.234h1.998l.064-.066v-1.26l-.064-.065H5.858c-.052 0-.226-.174-.25-.234-.11-.288.094-.66.378-.66h1.935V8.727c0-.54-.465-1.253-.9-1.541-1.232-.804-2.749 0-2.929 1.451l-.011 4.522c-.186.492-.831.396-.86-.126.087-1.445-.11-3.016 0-4.45.093-1.193 1.243-2.627 2.457-2.627h6.891V1.482c0-.221.232-.467.46-.467.33 0 1.23.69 1.608.797.436-.102 1.226-.785 1.616-.791.308 0 1.255.671 1.603.791.424-.096 1.244-.785 1.615-.791.314 0 1.244.677 1.61.785l1.545-.767c.262-.042.372.096.512.288v.09Zm-.878.81c-.32.107-.842.533-1.15.539-.308.006-1.214-.624-1.615-.768-.28-.018-1.203.756-1.604.768-.4.012-1.22-.654-1.656-.762-.22 0-1.075.63-1.383.726-.528.162-.93-.384-1.423-.504V12.8c0 .966.157 2.297-.21 3.19-.365.894-.313.54-.487.822h7.936c.645 0 1.587-1.025 1.587-1.685v-12.9h.005ZM12.563 6.85h-4.52c.4.528.686 1.091.738 1.775.157 2.075-.174 4.402 0 6.465.174 2.063 1.964 2.267 3.114 1.278.238-.204.674-.834.674-1.146V6.85h-.006Z" fill="#0F0F0F" stroke="#0F0F0F" stroke-width=".5"/><mask id="b" fill="#fff"><path d="m5.893 19.38 5.385-.013c.547.066.558.834 0 .9h-5.31a.451.451 0 0 1-.075-.888Z"/></mask><path d="m5.893 19.38 5.385-.013c.547.066.558.834 0 .9h-5.31a.451.451 0 0 1-.075-.888Z" fill="#0F0F0F"/><path d="m5.893 19.38-.003-1H5.75l-.136.04.28.96Zm5.385-.013.12-.993-.06-.007h-.062l.002 1Zm0 .9v1h.06l.058-.007-.118-.993Zm-5.31 0-.128.992.064.008h.064v-1Zm-.073.112 5.386-.012-.005-2-5.386.012.005 2Zm5.264-.019a.537.537 0 0 1-.337-.19.543.543 0 0 1 .002-.704.537.537 0 0 1 .337-.192l.235 1.986a1.442 1.442 0 0 0 1.296-1.45 1.449 1.449 0 0 0-1.294-1.436l-.24 1.986Zm.12-1.093h-5.31v2h5.31v-2Zm-5.183.008a.55.55 0 0 1 .076 1.064l-.56-1.92c-1.58.461-1.31 2.641.228 2.84l.256-1.984Z" fill="#0F0F0F" mask="url(#b)"/><mask id="c" fill="#fff"><path d="M15.2 9.417c.419-.072 2.162-.066 2.586 0 .424.066.604.72.098.882h-2.777c-.441-.198-.4-.798.099-.882H15.2Z"/></mask><path d="M15.2 9.417c.419-.072 2.162-.066 2.586 0 .424.066.604.72.098.882h-2.777c-.441-.198-.4-.798.099-.882H15.2Z" fill="#0F0F0F"/><path d="m15.2 9.417-.17-.986.17 1.986v-1Zm2.684.882v1h.157l.149-.048-.306-.952Zm-2.777 0-.409.912.195.088h.214v-1Zm.099-.882.166.986-.166-1.986v1Zm.164.986.032-.004.086-.008c.073-.005.164-.01.27-.014.213-.008.47-.012.731-.012.558.001 1.02.021 1.143.04l.307-1.976c-.301-.047-.922-.063-1.447-.064-.518 0-1.15.013-1.461.066l.339 1.972Zm2.262.002a.505.505 0 0 1-.432-.404.583.583 0 0 1 .07-.387c.088-.16.222-.24.31-.268l.61 1.905c.34-.11.64-.331.825-.661.177-.318.205-.659.153-.947-.098-.538-.526-1.105-1.229-1.214l-.307 1.976Zm.252-1.106h-2.777v2h2.777v-2Zm-2.368.087a.52.52 0 0 1 .283.523.576.576 0 0 1-.154.34.503.503 0 0 1-.273.154l-.332-1.972c-.683.115-1.17.641-1.232 1.29-.058.622.288 1.22.89 1.49l.818-1.825Zm-.31-.969H15.2v2h.006v-2Z" fill="#0F0F0F" mask="url(#c)"/><path d="M17.844 12.596c-.422.067-.927.038-1.43.01-.44-.025-.878-.05-1.26-.01h2.69Z" fill="#0F0F0F" stroke="#0F0F0F"/><mask id="d" fill="#fff"><path d="M15.113 13.993h2.772c.488.138.418.81-.088.882-.435.066-2.173.072-2.603 0-.47-.078-.528-.726-.08-.888v.006Z"/></mask><path d="M15.113 13.993h2.772c.488.138.418.81-.088.882-.435.066-2.173.072-2.603 0-.47-.078-.528-.726-.08-.888v.006Z" fill="#0F0F0F"/><path d="M15.113 13.993h-1v1h1v-1Zm2.772 0 .272-.962-.134-.038h-.138v1Zm-.088.882-.14-.99-.01.001.15.989Zm-2.603 0 .166-.986h-.002l-.164.986Zm-.08-.888h1v-1.425l-1.341.485.34.94Zm0 1.006h2.77v-2h-2.77v2Zm2.499-.037a.551.551 0 0 1-.304-.232.567.567 0 0 1-.09-.366.534.534 0 0 1 .438-.473l.281 1.98a1.467 1.467 0 0 0 1.27-1.306 1.429 1.429 0 0 0-1.051-1.528l-.544 1.925Zm.035-1.07c-.132.02-.599.04-1.156.04-.262.001-.52-.003-.734-.01a7.616 7.616 0 0 1-.389-.026.354.354 0 0 1-.01-.001l-.33 1.972c.314.053.945.066 1.466.066.528-.001 1.148-.017 1.452-.063l-.3-1.978Zm-2.29.002c.55.091.611.853.095 1.04l-.68-1.881c-1.41.51-1.233 2.567.258 2.814l.327-1.973Zm-1.245.1v.005h2v-.006h-2Z" fill="#0F0F0F" mask="url(#d)"/><mask id="e" fill="#fff"><path d="M16.595 6.227h2.544c.465.096.46.773.006.887h-2.597c-.43-.168-.377-.767.047-.887Z"/></mask><path d="M16.595 6.227h2.544c.465.096.46.773.006.887h-2.597c-.43-.168-.377-.767.047-.887Z" fill="#0F0F0F"/><path d="M16.595 6.227v-1h-.14l-.132.037.272.963Zm2.544 0 .203-.98-.1-.02h-.103v1Zm.006.887v1h.124l.12-.03-.244-.97Zm-2.597 0-.364.932.176.068h.188v-1Zm.047.113h2.544v-2h-2.544v2Zm2.342-.021a.58.58 0 0 1-.344-.225.537.537 0 0 1-.106-.317c0-.177.118-.445.414-.52l.488 1.94c.75-.188 1.098-.852 1.098-1.42 0-.58-.365-1.256-1.145-1.417l-.405 1.959Zm.208-1.092h-2.597v2h2.597v-2Zm-2.233.069c.231.09.35.33.337.536a.531.531 0 0 1-.382.47l-.544-1.925c-1.275.36-1.532 2.238-.139 2.782l.728-1.863Z" fill="#0F0F0F" mask="url(#e)"/><mask id="f" fill="#fff"><path d="M16.357 5.081c-.21-.24-.1-.695.226-.75.75-.12 1.784.085 2.563 0 .47.127.453.816-.047.894-.5.078-1.993.06-2.434 0-.442-.06-.256-.084-.314-.15l.006.006Z"/></mask><path d="M16.357 5.081c-.21-.24-.1-.695.226-.75.75-.12 1.784.085 2.563 0 .47.127.453.816-.047.894-.5.078-1.993.06-2.434 0-.442-.06-.256-.084-.314-.15l.006.006Z" fill="#0F0F0F"/><path d="m16.357 5.081-.719.696 1.472-1.353-.753.657Zm.226-.75-.158-.987-.005.001.163.987Zm2.563 0 .258-.965-.18-.048-.186.02.107.994Zm-2.795.744.718-.695L15.6 5.736l.75-.66Zm.76-.65a.518.518 0 0 1 .122.481.6.6 0 0 1-.486.412l-.327-1.973c-.643.107-.996.603-1.114 1.023-.114.409-.07.95.297 1.37l1.507-1.314Zm-.37.894c.25-.04.585-.029 1.056-.002.416.023.966.062 1.456.01l-.215-1.99c-.288.032-.645.01-1.128-.017-.428-.024-.985-.056-1.485.024l.316 1.975Zm2.146-.021a.549.549 0 0 1-.4-.542.544.544 0 0 1 .128-.325.551.551 0 0 1 .33-.194l.308 1.976a1.441 1.441 0 0 0 1.232-1.376 1.452 1.452 0 0 0-1.081-1.471l-.517 1.932Zm.058-1.06c-.16.024-.582.041-1.08.04a11.281 11.281 0 0 1-1.066-.043l-.269 1.981c.293.04.835.059 1.325.061.484.002 1.058-.01 1.398-.064l-.308-1.976Zm-2.146-.003c-.103-.014-.126-.021-.113-.018.006.002.058.015.126.047a.977.977 0 0 1 .546.924c-.004.068-.014.12-.016.132l-.002.01.005-.026a1.05 1.05 0 0 0-.244-.89l-1.5 1.322a.953.953 0 0 1-.218-.82v.002l-.001.003a1.024 1.024 0 0 0 .58 1.153c.091.043.175.067.227.08.104.027.223.046.341.062l.27-1.981ZM15.633 5.77l.005.006 1.437-1.391-.006-.006-1.436 1.391Z" fill="#0F0F0F" mask="url(#f)"/><path d="M19.74 12.062h.002-.001Z" fill="#0F0F0F" stroke="#0F0F0F"/><mask id="g" fill="#fff"><path d="M19.68 13.993c.157-.03.959-.036 1.104.012.389.12.343.804-.116.876-.198.03-.913.024-1.075-.054-.36-.174-.314-.75.087-.834Z"/></mask><path d="M19.68 13.993c.157-.03.959-.036 1.104.012.389.12.343.804-.116.876-.198.03-.913.024-1.075-.054-.36-.174-.314-.75.087-.834Z" fill="#0F0F0F"/><path d="m19.68 13.993-.188-.982-.009.001-.008.002.205.979Zm1.104.012-.314.95.01.003.01.003.294-.956Zm-.116.876.15.988h.004l-.154-.988Zm-1.075-.054-.435.9.002.001.433-.901Zm.275.148c-.037.007-.053.007-.023.005a6.863 6.863 0 0 1 .736.003l-.015-.003c-.009-.002-.046-.009-.096-.026l.627-1.899c-.183-.06-.397-.07-.467-.075a9.06 9.06 0 0 0-.773-.004c-.089.004-.241.011-.365.035l.376 1.964Zm.621-.014a.648.648 0 0 1-.38-.313.51.51 0 0 1-.06-.291.548.548 0 0 1 .464-.464l.31 1.975c.787-.123 1.16-.779 1.215-1.303.051-.49-.155-1.268-.96-1.516l-.589 1.912Zm.028-1.07c.017-.002-.013.003-.103.005a4.703 4.703 0 0 1-.494-.017c-.028-.003-.038-.005-.034-.005l.034.01a.735.735 0 0 1 .105.04l-.864 1.804c.208.1.44.127.522.137.13.016.272.024.4.028.233.008.539.006.735-.024l-.3-1.977Zm-.49.035a.556.556 0 0 1 .32.544.584.584 0 0 1-.462.502l-.41-1.958c-.71.149-1.07.744-1.12 1.268-.048.512.178 1.144.803 1.445l.87-1.8Z" fill="#0F0F0F" mask="url(#g)"/><path d="M19.836 9.916v-.001Z" fill="#0F0F0F" stroke="#0F0F0F"/></g><defs><clipPath id="a"><path fill="#fff" transform="translate(0 .25)" d="M0 0h24v24H0z"/></clipPath></defs></svg>