<svg width="25" height="24" fill="none" xmlns="http://www.w3.org/2000/svg"><path d="m23.737 1.167-.006 13.781c-.07 1.068-1.313 2.513-2.37 2.513h-6.804v2.897c0 1.433-1.534 2.507-2.8 2.585-3.184.191-6.542-.15-9.744 0-.406.012-.732-.408-.435-.768.145-.18.639-.168.894-.246.71-.222 1.29-.983 1.354-1.745.093-1.134-.081-6.261 0-7.407.122-.486.808-.39.86.12-.058 1.152.093 6.19.012 7.335-.053.707-.355 1.283-.785 1.817h7.937c.813 0 1.847-.912 1.847-1.775v-2.807h-2.806c-.953 0-2.37-1.415-2.37-2.399v-1.325H6.586c-.29 0-.494-.378-.378-.66.023-.066.198-.234.25-.234h1.999l.064-.066v-1.26l-.064-.065H6.458c-.052 0-.227-.174-.25-.234-.11-.288.093-.66.378-.66H8.52V8.477c0-.54-.465-1.253-.9-1.541-1.233-.804-2.75 0-2.93 1.451l-.01 4.522c-.187.492-.832.396-.86-.126.086-1.445-.111-3.016 0-4.45.092-1.193 1.243-2.627 2.457-2.627h6.89V1.232c0-.221.233-.467.46-.467.33 0 1.231.69 1.61.797.435-.102 1.225-.785 1.614-.791.308 0 1.255.671 1.604.791.424-.096 1.243-.785 1.615-.791.314 0 1.243.677 1.61.785L23.225.79c.261-.042.372.096.511.288v.09Zm-.877.81c-.32.107-.843.533-1.15.539-.308.006-1.215-.624-1.616-.768-.279-.018-1.202.756-1.603.768-.401.012-1.22-.654-1.656-.762-.22 0-1.075.63-1.383.726-.529.162-.93-.384-1.423-.504V12.55c0 .966.156 2.297-.21 3.19-.366.894-.313.54-.488.822h7.937c.645 0 1.586-1.025 1.586-1.685v-12.9h.006ZM13.163 6.6h-4.52c.4.528.685 1.091.738 1.775.156 2.075-.175 4.402 0 6.465.174 2.063 1.963 2.267 3.114 1.278.238-.204.674-.834.674-1.146V6.6h-.006Z" fill="currentColor" stroke="currentColor" stroke-width=".5"/><path d="m6.492 19.13 5.386-.013c.546.066.558.834 0 .9h-5.31a.451.451 0 0 1-.076-.888ZM15.8 9.167c.418-.072 2.161-.066 2.585 0 .424.066.605.72.1.882h-2.778c-.442-.198-.401-.798.099-.882H15.8ZM15.76 11.458c.382-.072 2.288-.072 2.683-.006.395.066.494.816 0 .894-.79.126-1.87-.084-2.69 0-.441-.102-.464-.798.006-.888ZM15.713 13.743h2.771c.488.138.418.81-.087.882-.436.066-2.173.072-2.603 0-.47-.078-.529-.726-.081-.888v.006ZM17.194 5.977h2.545c.465.096.459.773.006.887h-2.597c-.43-.168-.378-.767.046-.887ZM16.956 4.831c-.209-.24-.098-.695.227-.75.75-.12 1.784.085 2.562 0 .47.127.453.816-.046.894-.5.078-1.993.06-2.435 0-.441-.06-.255-.084-.313-.15l.005.006ZM20.088 12.238c-.261-.24-.133-.708.192-.785.325-.079.866-.03 1.023 0 .418.083.476.761.034.87-.215.053-1.092.06-1.249-.085ZM20.28 13.743c.156-.03.958-.036 1.103.012.39.12.343.804-.116.876-.197.03-.912.024-1.075-.054-.36-.174-.314-.75.087-.834ZM20.367 9.168c.197-.036.854-.036 1.022.042.372.186.32.773-.08.84-.402.065-1.018.023-1.14-.03-.366-.163-.284-.768.198-.852Z" fill="currentColor"/></svg>