<svg width="25" height="25" fill="none" xmlns="http://www.w3.org/2000/svg"><path d="M6.037 11.813c0-2.828 0-4.243.88-5.121.877-.879 2.292-.879 5.12-.879h3c2.828 0 4.243 0 5.121.879.88.878.88 2.293.88 5.121v5c0 2.828 0 4.243-.88 5.121-.878.879-2.293.879-5.12.879h-3c-2.829 0-4.244 0-5.122-.879-.879-.878-.879-2.293-.879-5.121v-5Z" stroke="#000" stroke-width="1.5"/><path d="M6.037 19.813a3 3 0 0 1-3-3v-6c0-3.771 0-5.657 1.172-6.828 1.172-1.171 3.057-1.172 6.828-1.172h4a3 3 0 0 1 3 3" stroke="#000" stroke-width="1.5"/></svg>