<svg width="25" height="25" fill="none" xmlns="http://www.w3.org/2000/svg"><path d="M6.037 11.813c0-2.829 0-4.244.88-5.122.877-.878 2.292-.878 5.12-.878h3c2.828 0 4.243 0 5.121.878.88.878.88 2.294.88 5.122v5c0 2.828 0 4.242-.88 5.12-.878.88-2.293.88-5.12.88h-3c-2.829 0-4.244 0-5.122-.88-.879-.878-.879-2.293-.879-5.12v-5Z" stroke="#000" stroke-width="1.5"/><path d="M6.037 19.813a3 3 0 0 1-3-3v-6c0-3.772 0-5.658 1.172-6.829 1.172-1.17 3.057-1.171 6.828-1.171h4a3 3 0 0 1 3 3" stroke="#000" stroke-width="1.5"/></svg>