<svg width="25" height="25" fill="none" xmlns="http://www.w3.org/2000/svg"><path d="M12.146 14.75a1.125 1.125 0 1 1 0-2.25 1.125 1.125 0 0 1 0 2.25Zm9.75-2.25a9.75 9.75 0 1 1-9.75-9.75 9.76 9.76 0 0 1 9.75 9.75Zm-18 0v.03a12.743 12.743 0 0 1 16.5 0v-.03a8.25 8.25 0 0 0-16.5 0Zm6.329 8.023L8.626 16.25H4.8a8.283 8.283 0 0 0 5.426 4.273Zm1.921.227h.234l1.881-5.022a1.507 1.507 0 0 1 1.407-.974h4.417c.036-.123.068-.248.094-.375a11.25 11.25 0 0 0-16.069 0c.03.125.061.25.094.375h4.422a1.508 1.508 0 0 1 1.406.975l1.875 5.021h.24Zm7.348-4.5h-3.827l-1.602 4.274a8.284 8.284 0 0 0 5.429-4.274Z" fill="#0F0F0F"/></svg>