<svg width="25" height="24" fill="none" xmlns="http://www.w3.org/2000/svg"><path d="M19.2 3h-14c-1.414 0-2.12 0-2.56.412-.439.412-.44 1.076-.44 2.403v.69c0 1.037 0 1.556.26 1.986.26.43.733.698 1.682 1.232l2.913 1.64c.636.358.955.537 1.183.735.474.411.766.895.898 1.49.064.284.064.618.064 1.285v2.67c0 .909 0 1.364.252 1.718.252.355.7.53 1.594.88 1.88.734 2.818 1.101 3.486.683.668-.418.668-1.372.668-3.282v-2.67c0-.666 0-1 .064-1.285a2.68 2.68 0 0 1 .9-1.49c.226-.197.545-.376 1.181-.735l2.913-1.64c.948-.533 1.423-.8 1.682-1.23.26-.43.26-.95.26-1.988v-.69c0-1.326 0-1.99-.44-2.402C21.322 3 20.615 3 19.2 3Z" stroke="#0F0F0F" stroke-width="1.5"/></svg>