<svg width="24" height="25" fill="none" xmlns="http://www.w3.org/2000/svg"><path fill-rule="evenodd" clip-rule="evenodd" d="M5.08 5.385c3.794-3.79 9.964-3.75 13.782.07 3.82 3.82 3.86 9.992.064 13.787s-9.968 3.756-13.788-.064a9.81 9.81 0 0 1-2.798-8.28.75.75 0 1 1 1.487.203 8.31 8.31 0 0 0 2.371 7.017c3.245 3.244 8.468 3.263 11.668.064 3.2-3.2 3.18-8.423-.064-11.668C14.56 3.272 9.34 3.251 6.14 6.446l.748.003a.75.75 0 1 1-.007 1.5l-2.546-.012a.75.75 0 0 1-.746-.747l-.013-2.544a.75.75 0 1 1 1.5-.008l.004.747ZM12 7.565a.75.75 0 0 1 .75.75v3.69l2.28 2.28a.75.75 0 1 1-1.06 1.061l-2.72-2.72v-4.31a.75.75 0 0 1 .75-.75" fill="#0F0F0F"/></svg>