<svg width="25" height="24" fill="none" xmlns="http://www.w3.org/2000/svg"><path d="M9.037 11a2 2 0 1 0 0-4 2 2 0 0 0 0 4ZM13.037 15c0 1.105 0 2-4 2s-4-.895-4-2 1.79-2 4-2 4 .895 4 2Z" stroke="currentColor" stroke-width="1.5"/><path d="M2.037 12c0-3.771 0-5.657 1.172-6.828C4.381 4.001 6.266 4 10.037 4h4c3.771 0 5.657 0 6.828 1.172 1.171 1.172 1.172 3.057 1.172 6.828 0 3.771 0 5.657-1.172 6.828C19.693 19.999 17.808 20 14.037 20h-4c-3.77 0-5.657 0-6.828-1.172C2.04 17.656 2.037 15.771 2.037 12Z" stroke="currentColor" stroke-width="1.5"/><path d="M19.037 12h-4m4-3h-5m5 6h-3" stroke="currentColor" stroke-width="1.5" stroke-linecap="round"/></svg>