<svg width="25" height="24" viewBox="0 0 25 24" fill="none" xmlns="http://www.w3.org/2000/svg">
<path d="M9.03711 11C10.1417 11 11.0371 10.1046 11.0371 9C11.0371 7.89543 10.1417 7 9.03711 7C7.93254 7 7.03711 7.89543 7.03711 9C7.03711 10.1046 7.93254 11 9.03711 11Z" stroke="#0F0F0F" stroke-width="1.5"/>
<path d="M13.0371 15C13.0371 16.105 13.0371 17 9.03711 17C5.03711 17 5.03711 16.105 5.03711 15C5.03711 13.895 6.82711 13 9.03711 13C11.2471 13 13.0371 13.895 13.0371 15Z" stroke="#0F0F0F" stroke-width="1.5"/>
<path d="M2.03711 12C2.03711 8.229 2.03711 6.343 3.20911 5.172C4.38111 4.001 6.26611 4 10.0371 4H14.0371C17.8081 4 19.6941 4 20.8651 5.172C22.0361 6.344 22.0371 8.229 22.0371 12C22.0371 15.771 22.0371 17.657 20.8651 18.828C19.6931 19.999 17.8081 20 14.0371 20H10.0371C6.26611 20 4.38011 20 3.20911 18.828C2.03811 17.656 2.03711 15.771 2.03711 12Z" stroke="#0F0F0F" stroke-width="1.5"/>
<path d="M19.0371 12H15.0371M19.0371 9H14.0371M19.0371 15H16.0371" stroke="#0F0F0F" stroke-width="1.5" stroke-linecap="round"/>
</svg>
