<svg width="24" height="24" fill="none" xmlns="http://www.w3.org/2000/svg"><path d="m4.799 5.158.033-.033a.474.474 0 0 1 .67 0l2.155 2.156a.474.474 0 0 1 0 .67l-.033.032a.473.473 0 0 1-.67 0L4.8 5.828a.474.474 0 0 1 0-.67ZM1.867 12.29v-.046c0-.262.212-.474.474-.474h3.048c.261 0 .473.212.473.474v.046a.474.474 0 0 1-.473.474H2.34a.474.474 0 0 1-.474-.474ZM11.909 1.914h.047c.261 0 .473.212.473.474v3.048a.474.474 0 0 1-.473.473h-.047a.474.474 0 0 1-.474-.473V2.388c0-.262.213-.474.474-.474ZM4.83 19.347l-.034-.033a.473.473 0 0 1 0-.67l2.156-2.155a.474.474 0 0 1 .67 0l.032.033a.473.473 0 0 1 0 .67L5.5 19.346a.474.474 0 0 1-.67 0ZM11.909 18.09h.047c.261 0 .473.213.473.474v3.049a.474.474 0 0 1-.473.473h-.047a.474.474 0 0 1-.474-.473v-3.049c0-.261.213-.473.474-.473ZM18.137 12.29v-.046c0-.262.212-.474.473-.474h3.048c.262 0 .474.212.474.474v.046a.474.474 0 0 1-.474.474H18.61a.474.474 0 0 1-.473-.474ZM16.21 16.518l.034-.033a.474.474 0 0 1 .67 0l2.155 2.155a.473.473 0 0 1 0 .67l-.033.033a.473.473 0 0 1-.67 0l-2.155-2.156a.474.474 0 0 1 0-.67Z" stroke="currentColor" stroke-width="1.5"/></svg>