<svg width="24" height="25" fill="none" xmlns="http://www.w3.org/2000/svg"><path clip-rule="evenodd" d="M19.071 19.57c-3.056 3.056-7.581 3.717-11.285 2.004-.546-.22-.995-.398-1.42-.398-1.188.007-2.665 1.158-3.433.391-.767-.768.384-2.246.384-3.44 0-.427-.17-.867-.39-1.415C1.212 13.01 1.873 8.482 4.93 5.427c3.902-3.903 10.24-3.903 14.141 0 3.909 3.908 3.902 10.241 0 14.143Z" stroke="#0F0F0F" stroke-width="1.5" stroke-linecap="round" stroke-linejoin="round"/><path d="M15.94 12.913h.009M11.93 12.913h.01M7.921 12.913h.01" stroke="#0F0F0F" stroke-width="2" stroke-linecap="round" stroke-linejoin="round"/></svg>