<svg width="26" height="26" fill="none" xmlns="http://www.w3.org/2000/svg"><path d="m10.959 9.875 4.385-6.25 5.115 3.583-1.865 2.667h-7.635Zm0 0h-4.48l3.657-5.208 3.031 2.083-2.208 3.125ZM21.5 9.875H4.833c-.575 0-1.041.466-1.041 1.041v10.418c0 .575.466 1.041 1.041 1.041H21.5c.576 0 1.042-.466 1.042-1.041V10.916c0-.575-.466-1.041-1.042-1.041Z" stroke="currentColor" stroke-width="1.5" stroke-linecap="round" stroke-linejoin="round"/><path d="M17.334 14.041h5.208v4.167h-5.209a1.041 1.041 0 0 1-1.041-1.042v-2.083a1.042 1.042 0 0 1 1.041-1.042Z" stroke="currentColor" stroke-linecap="round" stroke-linejoin="round"/></svg>