<svg width="25" height="24" fill="none" xmlns="http://www.w3.org/2000/svg"><path d="M12.4 14.347a2.347 2.347 0 1 0 0-4.694 2.347 2.347 0 0 0 0 4.694Z" stroke="#0F0F0F" stroke-width="1.5" stroke-linecap="round" stroke-linejoin="round"/><path d="M18.455 14.454a1.35 1.35 0 0 0 .27 1.49l.049.049a1.636 1.636 0 0 1-.531 2.67 1.637 1.637 0 0 1-1.784-.355l-.05-.049a1.35 1.35 0 0 0-1.489-.27 1.35 1.35 0 0 0-.818 1.235v.14a1.636 1.636 0 1 1-3.273 0v-.074a1.35 1.35 0 0 0-.883-1.235 1.35 1.35 0 0 0-1.49.27l-.048.049a1.635 1.635 0 0 1-2.316 0 1.635 1.635 0 0 1 0-2.316l.05-.049a1.35 1.35 0 0 0 .27-1.489 1.35 1.35 0 0 0-1.236-.818h-.14a1.636 1.636 0 1 1 0-3.273h.074a1.35 1.35 0 0 0 1.236-.884 1.35 1.35 0 0 0-.27-1.489l-.05-.049a1.636 1.636 0 1 1 2.316-2.315l.05.049a1.35 1.35 0 0 0 1.488.27h.066a1.35 1.35 0 0 0 .818-1.236v-.139a1.636 1.636 0 1 1 3.273 0v.074a1.35 1.35 0 0 0 .818 1.235 1.35 1.35 0 0 0 1.489-.27l.05-.049a1.637 1.637 0 1 1 2.315 2.316l-.05.049a1.35 1.35 0 0 0-.27 1.489v.065a1.35 1.35 0 0 0 1.236.819h.139a1.636 1.636 0 1 1 0 3.272h-.074a1.35 1.35 0 0 0-1.235.819v0Z" stroke="#0F0F0F" stroke-width="1.5" stroke-linecap="round" stroke-linejoin="round"/></svg>