<svg width="25" height="24" fill="none" xmlns="http://www.w3.org/2000/svg"><path d="M16.357 7.64c0-.1-.082-.181-.181-.181h-1.238a.18.18 0 0 0-.161.1l-1.923 3.833h-.075l-1.924-3.833a.181.181 0 0 0-.161-.1H9.429a.17.17 0 0 0-.086.023.18.18 0 0 0-.073.245l2.36 4.35h-1.295c-.1 0-.181.082-.181.182v.616c0 .1.081.181.181.181h1.726v.886h-1.726c-.1 0-.181.082-.181.181v.616c0 .1.081.181.181.181h1.726v1.44c0 .1.082.182.182.182h1.133c.1 0 .181-.082.181-.182v-1.442h1.733c.1 0 .182-.082.182-.181v-.616c0-.1-.082-.181-.182-.181h-1.733v-.886h1.733c.1 0 .182-.082.182-.182v-.615c0-.1-.082-.182-.182-.182h-1.308l2.355-4.35a.207.207 0 0 0 .02-.084ZM4.761 11.824A8.009 8.009 0 0 1 7.11 6.32a8.006 8.006 0 0 1 5.677-2.355 8.006 8.006 0 0 1 5.677 2.355c.227.227.438.466.633.713l-1.135.888a.182.182 0 0 0 .068.32l3.56.87a.182.182 0 0 0 .225-.175l.018-3.667a.18.18 0 0 0-.293-.143l-1.085.849a9.705 9.705 0 0 0-7.666-3.738c-5.325 0-9.655 4.272-9.753 9.578A.182.182 0 0 0 3.22 12H4.58a.18.18 0 0 0 .18-.177ZM22.384 12H21.02c-.097 0-.18.08-.181.178a8.01 8.01 0 0 1-2.35 5.504 8.005 8.005 0 0 1-5.677 2.354 8.005 8.005 0 0 1-5.677-2.355 8.134 8.134 0 0 1-.634-.712l1.133-.888a.182.182 0 0 0-.068-.32l-3.56-.87a.182.182 0 0 0-.225.175l-.018 3.672a.18.18 0 0 0 .293.143l1.085-.85a9.73 9.73 0 0 0 7.67 3.734c5.325 0 9.656-4.272 9.753-9.578a.183.183 0 0 0-.181-.187Z" fill="#0F0F0F"/></svg>