<svg width="22" height="23" fill="none" xmlns="http://www.w3.org/2000/svg"><g clip-path="url(#a)"><path d="M16.874 21.617c-1.167 1.161-2.44.978-3.666.428-1.297-.562-2.488-.587-3.856 0-1.714.758-2.619.538-3.642-.428C-.098 15.47.759 6.11 7.352 5.767c1.607.086 2.726.904 3.666.978 1.404-.294 2.75-1.137 4.249-1.027 1.797.147 3.154.88 4.047 2.2-3.714 2.285-2.833 7.308.57 8.713-.678 1.833-1.558 3.654-3.022 4.999l.012-.013ZM10.899 5.694C10.721 2.969 12.875.72 15.35.5c.345 3.153-2.785 5.5-4.45 5.194Z" fill="#0F0F0F"/></g><defs><clipPath id="a"><path fill="#fff" transform="translate(0 .5)" d="M0 0h22v22H0z"/></clipPath></defs></svg>