<svg width="20" height="21" fill="none" xmlns="http://www.w3.org/2000/svg"><g clip-path="url(#a)"><path d="M19.963 10.721c0-.819-.068-1.417-.215-2.036h-9.544v3.697h5.602c-.113.918-.722 2.302-2.078 3.232l3.208 2.435c1.92-1.738 3.027-4.295 3.027-7.328Z" fill="#4081F7"/><path d="M10.204 20.462c2.744 0 5.048-.886 6.731-2.413l-3.207-2.436c-.859.587-2.01.997-3.524.997a6.108 6.108 0 0 1-5.783-4.14L1.123 14.97c1.671 3.255 5.105 5.49 9.08 5.49Z" fill="#2EA950"/><path d="M4.421 12.47a6.022 6.022 0 0 1-.338-1.97c0-.686.124-1.35.327-1.97L1.123 6.028A9.81 9.81 0 0 0 .04 10.5c0 1.605.395 3.122 1.084 4.472l3.298-2.502Z" fill="#FEBC03"/><path d="M10.204 4.39c1.909 0 3.196.808 3.93 1.483l2.87-2.745c-1.763-1.605-4.056-2.59-6.8-2.59-3.976 0-7.41 2.236-9.081 5.49L4.409 8.53a6.134 6.134 0 0 1 5.795-4.14Z" fill="#EE402F"/></g><defs><clipPath id="a"><path fill="#fff" transform="translate(0 .5)" d="M0 0h20v20H0z"/></clipPath></defs></svg>