<svg width="125" height="62" fill="none" xmlns="http://www.w3.org/2000/svg"><path d="M2.072.52c.047.054.094.114.148.168C10.23 8.99 18.23 17.292 26.238 25.594c.081.08.142.181.243.221.074-.033.06-.08.06-.12V10.363c0-.455-.06-.321.264-.643 2.989-2.968 5.977-5.943 8.966-8.912.081-.08.148-.18.283-.241.02.06.048.107.048.154.006.094 0 .194 0 .288v38.402c0 .134.02.275-.027.422-.048.014-.088.027-.129.027H27.5c-.432 0-.31.047-.688-.261-.061-.047-.108-.1-.162-.154-3.212-3.19-6.416-6.386-9.628-9.576l-2.63-2.613c-3.165-3.143-6.33-6.292-9.493-9.435-1.356-1.347-2.712-2.7-4.068-4.047l-.162-.16a.328.328 0 0 1-.108-.255v-.483c0-1.166 0-2.332-.007-3.504 0-1.374-.007-2.74-.014-4.114 0-.898-.013-1.796-.02-2.7C.52 1.987.507 1.424.5.854.5.735.513.621.52.5h1.552v.02ZM.574 17.862c.135.12.216.195.29.262.688.683 1.37 1.366 2.058 2.043l6.956 6.909c.31.308.263.214.263.643v11.726c0 .127 0 .255-.007.395-.074.014-.135.027-.196.034H1.006c-.128 0-.256.02-.398-.034a1.703 1.703 0 0 1-.034-.18V17.855v.007Z" fill="#77BBE8"/><path d="M51.315 27.283c.033.53.02 12.289-.014 12.564-.054.006-.114.02-.175.026H42.16c-.108 0-.216 0-.324-.006-.095-.007-.155-.067-.162-.168V17.782c.074.04.121.053.162.08.067.053.121.12.182.18 3.022 3.002 6.045 5.998 9.06 9 .081.08.162.167.237.24ZM70.61 23.081c-.64.637-1.274 1.274-1.915 1.91-.641.637-1.275 1.273-1.916 1.917-.641.636-1.275 1.273-1.916 1.916-.641.637-1.275 1.28-1.916 1.916-.641.637-1.269 1.28-1.923 1.91-.067-.053-.128-.087-.169-.134C54.44 26.13 48.03 19.745 41.607 13.352L41.668.688c0-.027.02-.06.04-.107h1.256c.155 0 .27.046.37.154.324.341.655.683.985 1.025 5.438 5.655 10.883 11.31 16.32 16.96.122.12.237.247.372.381.094-.093.168-.16.242-.24L71.731 7.91c2.253-2.352 4.5-4.704 6.753-7.056.31-.321.19-.274.634-.274h.877c.068 0 .129 0 .196.013a.16.16 0 0 1 .142.154v14.393c0 5.515 0 11.03.007 16.551v7.78c0 .127-.007.254-.014.381-.142.04-.277.027-.398.027h-8.831c-.405 0-.412 0-.412-.415V23.497c0-.127 0-.248-.007-.375l-.067-.027v-.014Z" fill="#005C7E"/><path d="M85.412 39.807c-.02-.067-.033-.094-.033-.128v-9.287c0-.026.013-.06.027-.1.04-.007.08-.02.121-.02h26.413c.196 0 .391-.014.58-.04 1.086-.148 2.213-1.274 2.065-2.667-.135-1.274-1.161-2.07-2.058-2.185a6.28 6.28 0 0 0-.708-.047h-10.1c-1.457 0-2.914.02-4.372-.006-3.744-.067-6.827-1.548-9.243-4.376-1.423-1.662-2.28-3.598-2.638-5.742a11.91 11.91 0 0 1-.094-3.136c.196-1.977.83-3.806 1.95-5.455 1.693-2.493 4-4.161 6.915-4.999.23-.067.459-.127.688-.18.081-.02.169-.034.243-.047.02 0 .027.006.04.013.007 0 .02.007.028.013l9.209 9.127c.04.04.074.08.108.12 0 .007 0 .02.006.034-.054.08-.135.04-.202.04h-6.895c-.513 0-.978.154-1.397.45-.674.475-1.066 1.125-1.08 1.949-.026 1.34.932 2.292 2.045 2.486.189.033.385.047.58.047h14.823c1.612 0 3.177.234 4.695.77 1.619.57 3.05 1.441 4.257 2.667 1.275 1.287 2.119 2.828 2.638 4.543.216.717.358 1.454.439 2.205.027.288.033.576.033.864 0 .61 0 1.22-.02 1.83-.027.73-.162 1.447-.344 2.15-1.093 4.269-4.27 7.485-8.555 8.651a12.553 12.553 0 0 1-3.386.436H85.406l.006.02Z" fill="#2DB8C5"/><path d="M29.935 50.344h10.43v2.727h-3.501v8.309H33.43v-8.31h-3.502v-2.726h.007ZM55.45 59.556h-3.9l-.539 1.823h-3.502l4.177-11.03h3.744l4.176 11.03H56.01l-.553-1.823h-.007Zm-.708-2.385-1.228-3.967-1.214 3.967h2.442ZM67.695 50.344h3.779l1.963 3.39 1.916-3.39h3.744l-3.454 5.34 3.785 5.69h-3.86l-2.192-3.546-2.193 3.545h-3.832l3.832-5.75-3.48-5.28h-.008ZM88.415 50.344h3.44v11.03h-3.44v-11.03Z" fill="#005C7E"/><mask id="a" style="mask-type:luminance" maskUnits="userSpaceOnUse" x="99" y="0" width="26" height="11"><path d="M99.828.62c.31-.04 18.661-.06 24.348-.033.094 0 .189 0 .304.014.006.08.02.147.02.214v9.501c0 .135 0 .269-.007.423-.081.013-.142.02-.202.027h-14.532c-.459 0-.338.047-.641-.282-3.016-3.19-6.025-6.385-9.041-9.582-.074-.08-.148-.16-.25-.281Z" fill="#fff"/></mask><g mask="url(#a)" fill="#2DB8C5"><path d="M104.482 5.68h-5.126v5.092h5.126V5.68ZM109.61.587h-5.127v5.092h5.127V.587ZM114.738 5.68h-5.127v5.092h5.127V5.68ZM119.872.587h-5.127v5.092h5.127V.587ZM125 5.68h-5.127v5.092H125V5.68Z"/></g></svg>