<svg width="484" height="137" fill="none" xmlns="http://www.w3.org/2000/svg"><path d="M107.334.545c.105.12.211.255.331.375 17.846 18.577 35.678 37.154 53.524 55.732.18.18.316.405.541.495.166-.075.135-.18.135-.27V22.57c0-1.02-.135-.72.587-1.44 6.66-6.642 13.321-13.299 19.981-19.941.18-.18.331-.405.632-.54.045.135.105.24.105.345.015.21 0 .435 0 .645v85.929c0 .3.045.615-.06.945-.106.03-.196.06-.286.06H164c-.962 0-.691.105-1.533-.585-.135-.105-.241-.225-.361-.345-7.157-7.137-14.298-14.29-21.455-21.426l-5.863-5.848c-7.052-7.032-14.103-14.079-21.154-21.111-3.022-3.014-6.044-6.042-9.066-9.056l-.361-.36a.738.738 0 0 1-.241-.57v-1.08c0-2.608 0-5.217-.015-7.841 0-3.074-.015-6.133-.03-9.206 0-2.01-.03-4.019-.045-6.043 0-1.274-.03-2.534-.045-3.808 0-.27.03-.525.045-.795h3.458v.045ZM103.996 39.348c.301.27.481.435.647.585 1.533 1.53 3.052 3.059 4.585 4.573l15.501 15.459c.692.69.586.48.586 1.439v26.239c0 .285 0 .57-.015.885-.165.03-.3.06-.436.075h-19.906c-.285 0-.571.045-.887-.075-.03-.135-.06-.27-.075-.405v-48.79.015ZM217.073 60.43c.075 1.185.045 27.499-.03 28.113-.12.015-.256.045-.391.06H196.671c-.241 0-.481 0-.722-.014-.21-.016-.346-.15-.361-.375V39.169c.166.09.271.12.361.18.151.12.271.27.406.405 6.736 6.717 13.471 13.42 20.192 20.136.18.18.361.375.526.54ZM260.074 51.028c-1.429 1.425-2.842 2.85-4.27 4.274-1.429 1.424-2.842 2.848-4.27 4.288a1153.36 1153.36 0 0 0-4.27 4.288c-1.428 1.424-2.842 2.864-4.27 4.288-1.428 1.425-2.826 2.864-4.285 4.273-.15-.12-.285-.194-.376-.3-14.298-14.288-28.581-28.578-42.894-42.882L195.574.92c0-.06.045-.135.09-.24H198.461c.346 0 .601.105.827.345.722.765 1.458 1.53 2.195 2.294 12.118 12.655 24.251 25.31 36.369 37.95.271.27.526.554.827.854.211-.21.376-.36.541-.54l23.349-24.5c5.022-5.262 10.029-10.525 15.05-15.788.692-.72.421-.615 1.414-.615h1.954c.15 0 .286 0 .436.03.181.03.301.15.316.345v32.207c0 12.34 0 24.68.015 37.034v17.408c0 .285-.015.57-.03.855-.316.09-.617.06-.887.06h-19.681c-.902 0-.917 0-.917-.93v-35.73c0-.285 0-.555-.015-.84-.045-.015-.105-.045-.15-.06v-.03ZM293.06 88.454c-.045-.15-.076-.21-.076-.285V67.387c0-.06.031-.135.061-.225.09-.015.18-.045.27-.045H352.177c.436 0 .872-.03 1.293-.09 2.42-.33 4.931-2.848 4.6-5.967-.3-2.849-2.586-4.633-4.585-4.888a13.97 13.97 0 0 0-1.579-.105h-22.507c-3.248 0-6.495.045-9.743-.015-8.344-.15-15.215-3.464-20.597-9.791-3.173-3.718-5.082-8.052-5.879-12.85-.391-2.324-.436-4.678-.211-7.017.436-4.423 1.85-8.516 4.345-12.205 3.774-5.577 8.916-9.31 15.411-11.185a28.94 28.94 0 0 1 1.534-.405c.18-.045.376-.075.541-.105.045 0 .06.015.09.03.015 0 .045.015.06.03l20.523 20.422c.09.09.165.18.24.27 0 .015 0 .045.015.075-.12.18-.3.09-.451.09H319.912c-1.143 0-2.18.344-3.112 1.004-1.504 1.065-2.376 2.519-2.406 4.363-.06 2.999 2.075 5.128 4.556 5.563.421.075.857.105 1.293.105h33.031c3.593 0 7.081.525 10.464 1.724 3.609 1.275 6.796 3.224 9.487 5.968 2.842 2.879 4.721 6.327 5.879 10.166.481 1.604.797 3.253.977 4.932.06.645.075 1.29.075 1.935 0 1.364 0 2.729-.045 4.093-.06 1.634-.361 3.239-.767 4.813-2.435 9.551-9.517 16.748-19.064 19.357-2.465.675-4.991.99-7.547.975h-59.688l.015.045ZM169.427 112.033h23.243v6.103h-7.803v18.592h-7.652v-18.592h-7.803v-6.103h.015ZM226.287 132.648h-8.69l-1.203 4.079h-7.803l9.307-24.68h8.344l9.307 24.68h-8.014l-1.233-4.079h-.015Zm-1.578-5.337-2.737-8.877-2.706 8.877h5.443ZM253.576 112.033h8.419l4.376 7.587 4.269-7.587h8.345l-7.698 11.95 8.434 12.73h-8.599l-4.887-7.932-4.886 7.932h-8.54l8.54-12.865-7.758-11.815h-.015ZM299.749 112.033h7.668v24.68h-7.668v-24.68Z" fill="#F6F6F6"/><mask id="a" style="mask-type:luminance" maskUnits="userSpaceOnUse" x="325" y="0" width="56" height="24"><path d="M325.186.772c.692-.09 41.586-.135 54.261-.075.21 0 .421 0 .676.03.015.18.045.33.045.48v21.261c0 .3 0 .6-.015.945a7.57 7.57 0 0 1-.451.06h-32.385c-1.022 0-.751.105-1.428-.63-6.721-7.137-13.426-14.289-20.147-21.441-.165-.18-.33-.36-.556-.63Z" fill="#fff"/></mask><g mask="url(#a)" fill="#2DB8C5"><path d="M335.561 12.096h-11.426V23.49h11.426V12.096ZM346.987.698H335.56v11.396h11.427V.697ZM358.414 12.096h-11.427V23.49h11.427V12.096ZM369.854.698h-11.427v11.396h11.427V.697ZM381.281 12.096h-11.427V23.49h11.427V12.096Z"/></g></svg>